<svg width="493" height="144" viewBox="0 0 493 144" fill="none" xmlns="http://www.w3.org/2000/svg">
<rect width="493" height="144" rx="30" fill="#433C3C"/>
<path d="M76.592 57.832H81.968V61H72.488V44.152H76.592V57.832ZM90.0215 61.192C88.7095 61.192 87.5255 60.912 86.4695 60.352C85.4295 59.792 84.6055 58.992 83.9975 57.952C83.4055 56.912 83.1095 55.696 83.1095 54.304C83.1095 52.928 83.4135 51.72 84.0215 50.68C84.6295 49.624 85.4615 48.816 86.5175 48.256C87.5735 47.696 88.7575 47.416 90.0695 47.416C91.3815 47.416 92.5655 47.696 93.6215 48.256C94.6775 48.816 95.5095 49.624 96.1175 50.68C96.7255 51.72 97.0295 52.928 97.0295 54.304C97.0295 55.68 96.7175 56.896 96.0935 57.952C95.4855 58.992 94.6455 59.792 93.5735 60.352C92.5175 60.912 91.3335 61.192 90.0215 61.192ZM90.0215 57.64C90.8055 57.64 91.4695 57.352 92.0135 56.776C92.5735 56.2 92.8535 55.376 92.8535 54.304C92.8535 53.232 92.5815 52.408 92.0375 51.832C91.5095 51.256 90.8535 50.968 90.0695 50.968C89.2695 50.968 88.6055 51.256 88.0775 51.832C87.5495 52.392 87.2855 53.216 87.2855 54.304C87.2855 55.376 87.5415 56.2 88.0535 56.776C88.5815 57.352 89.2375 57.64 90.0215 57.64ZM103.311 49.84C103.791 49.104 104.391 48.528 105.111 48.112C105.831 47.68 106.631 47.464 107.511 47.464V51.808H106.383C105.359 51.808 104.591 52.032 104.079 52.48C103.567 52.912 103.311 53.68 103.311 54.784V61H99.2068V47.608H103.311V49.84ZM122.096 54.088C122.096 54.472 122.072 54.872 122.024 55.288H112.736C112.8 56.12 113.064 56.76 113.528 57.208C114.008 57.64 114.592 57.856 115.28 57.856C116.304 57.856 117.016 57.424 117.416 56.56H121.784C121.56 57.44 121.152 58.232 120.56 58.936C119.984 59.64 119.256 60.192 118.376 60.592C117.496 60.992 116.512 61.192 115.424 61.192C114.112 61.192 112.944 60.912 111.92 60.352C110.896 59.792 110.096 58.992 109.52 57.952C108.944 56.912 108.656 55.696 108.656 54.304C108.656 52.912 108.936 51.696 109.496 50.656C110.072 49.616 110.872 48.816 111.896 48.256C112.92 47.696 114.096 47.416 115.424 47.416C116.72 47.416 117.872 47.688 118.88 48.232C119.888 48.776 120.672 49.552 121.232 50.56C121.808 51.568 122.096 52.744 122.096 54.088ZM117.896 53.008C117.896 52.304 117.656 51.744 117.176 51.328C116.696 50.912 116.096 50.704 115.376 50.704C114.688 50.704 114.104 50.904 113.624 51.304C113.16 51.704 112.872 52.272 112.76 53.008H117.896ZM141.349 47.464C143.013 47.464 144.333 47.968 145.309 48.976C146.301 49.984 146.797 51.384 146.797 53.176V61H142.717V53.728C142.717 52.864 142.485 52.2 142.021 51.736C141.573 51.256 140.949 51.016 140.149 51.016C139.349 51.016 138.717 51.256 138.253 51.736C137.805 52.2 137.581 52.864 137.581 53.728V61H133.501V53.728C133.501 52.864 133.269 52.2 132.805 51.736C132.357 51.256 131.733 51.016 130.933 51.016C130.133 51.016 129.501 51.256 129.037 51.736C128.589 52.2 128.365 52.864 128.365 53.728V61H124.261V47.608H128.365V49.288C128.781 48.728 129.325 48.288 129.997 47.968C130.669 47.632 131.429 47.464 132.277 47.464C133.285 47.464 134.181 47.68 134.965 48.112C135.765 48.544 136.389 49.16 136.837 49.96C137.301 49.224 137.933 48.624 138.733 48.16C139.533 47.696 140.405 47.464 141.349 47.464ZM156.818 46.216C156.098 46.216 155.506 46.008 155.042 45.592C154.594 45.16 154.37 44.632 154.37 44.008C154.37 43.368 154.594 42.84 155.042 42.424C155.506 41.992 156.098 41.776 156.818 41.776C157.522 41.776 158.098 41.992 158.546 42.424C159.01 42.84 159.242 43.368 159.242 44.008C159.242 44.632 159.01 45.16 158.546 45.592C158.098 46.008 157.522 46.216 156.818 46.216ZM158.858 47.608V61H154.754V47.608H158.858ZM165.936 49.504C166.336 48.88 166.888 48.376 167.592 47.992C168.296 47.608 169.12 47.416 170.064 47.416C171.168 47.416 172.168 47.696 173.064 48.256C173.96 48.816 174.664 49.616 175.176 50.656C175.704 51.696 175.968 52.904 175.968 54.28C175.968 55.656 175.704 56.872 175.176 57.928C174.664 58.968 173.96 59.776 173.064 60.352C172.168 60.912 171.168 61.192 170.064 61.192C169.136 61.192 168.312 61 167.592 60.616C166.888 60.232 166.336 59.736 165.936 59.128V67.384H161.832V47.608H165.936V49.504ZM171.792 54.28C171.792 53.256 171.504 52.456 170.928 51.88C170.368 51.288 169.672 50.992 168.84 50.992C168.024 50.992 167.328 51.288 166.752 51.88C166.192 52.472 165.912 53.28 165.912 54.304C165.912 55.328 166.192 56.136 166.752 56.728C167.328 57.32 168.024 57.616 168.84 57.616C169.656 57.616 170.352 57.32 170.928 56.728C171.504 56.12 171.792 55.304 171.792 54.28ZM183.569 61.192C182.401 61.192 181.361 60.992 180.449 60.592C179.537 60.192 178.817 59.648 178.289 58.96C177.761 58.256 177.465 57.472 177.401 56.608H181.457C181.505 57.072 181.721 57.448 182.105 57.736C182.489 58.024 182.961 58.168 183.521 58.168C184.033 58.168 184.425 58.072 184.697 57.88C184.985 57.672 185.129 57.408 185.129 57.088C185.129 56.704 184.929 56.424 184.529 56.248C184.129 56.056 183.481 55.848 182.585 55.624C181.625 55.4 180.825 55.168 180.185 54.928C179.545 54.672 178.993 54.28 178.529 53.752C178.065 53.208 177.833 52.48 177.833 51.568C177.833 50.8 178.041 50.104 178.457 49.48C178.889 48.84 179.513 48.336 180.329 47.968C181.161 47.6 182.145 47.416 183.281 47.416C184.961 47.416 186.281 47.832 187.241 48.664C188.217 49.496 188.777 50.6 188.921 51.976H185.129C185.065 51.512 184.857 51.144 184.505 50.872C184.169 50.6 183.721 50.464 183.161 50.464C182.681 50.464 182.313 50.56 182.057 50.752C181.801 50.928 181.673 51.176 181.673 51.496C181.673 51.88 181.873 52.168 182.273 52.36C182.689 52.552 183.329 52.744 184.193 52.936C185.185 53.192 185.993 53.448 186.617 53.704C187.241 53.944 187.785 54.344 188.249 54.904C188.729 55.448 188.977 56.184 188.993 57.112C188.993 57.896 188.769 58.6 188.321 59.224C187.889 59.832 187.257 60.312 186.425 60.664C185.609 61.016 184.657 61.192 183.569 61.192ZM204.728 47.608V61H200.624V59.176C200.208 59.768 199.64 60.248 198.92 60.616C198.216 60.968 197.432 61.144 196.568 61.144C195.544 61.144 194.64 60.92 193.856 60.472C193.072 60.008 192.464 59.344 192.032 58.48C191.6 57.616 191.384 56.6 191.384 55.432V47.608H195.464V54.88C195.464 55.776 195.696 56.472 196.16 56.968C196.624 57.464 197.248 57.712 198.032 57.712C198.832 57.712 199.464 57.464 199.928 56.968C200.392 56.472 200.624 55.776 200.624 54.88V47.608H204.728ZM224.764 47.464C226.428 47.464 227.748 47.968 228.724 48.976C229.716 49.984 230.212 51.384 230.212 53.176V61H226.132V53.728C226.132 52.864 225.9 52.2 225.436 51.736C224.988 51.256 224.364 51.016 223.564 51.016C222.764 51.016 222.132 51.256 221.668 51.736C221.22 52.2 220.996 52.864 220.996 53.728V61H216.916V53.728C216.916 52.864 216.684 52.2 216.22 51.736C215.772 51.256 215.148 51.016 214.348 51.016C213.548 51.016 212.916 51.256 212.452 51.736C212.004 52.2 211.78 52.864 211.78 53.728V61H207.676V47.608H211.78V49.288C212.196 48.728 212.74 48.288 213.412 47.968C214.084 47.632 214.844 47.464 215.692 47.464C216.7 47.464 217.596 47.68 218.38 48.112C219.18 48.544 219.804 49.16 220.252 49.96C220.716 49.224 221.348 48.624 222.148 48.16C222.948 47.696 223.82 47.464 224.764 47.464ZM237.352 54.28C237.352 52.904 237.608 51.696 238.12 50.656C238.648 49.616 239.36 48.816 240.256 48.256C241.152 47.696 242.152 47.416 243.256 47.416C244.136 47.416 244.936 47.6 245.656 47.968C246.392 48.336 246.968 48.832 247.384 49.456V43.24H251.488V61H247.384V59.08C247 59.72 246.448 60.232 245.728 60.616C245.024 61 244.2 61.192 243.256 61.192C242.152 61.192 241.152 60.912 240.256 60.352C239.36 59.776 238.648 58.968 238.12 57.928C237.608 56.872 237.352 55.656 237.352 54.28ZM247.384 54.304C247.384 53.28 247.096 52.472 246.52 51.88C245.96 51.288 245.272 50.992 244.456 50.992C243.64 50.992 242.944 51.288 242.368 51.88C241.808 52.456 241.528 53.256 241.528 54.28C241.528 55.304 241.808 56.12 242.368 56.728C242.944 57.32 243.64 57.616 244.456 57.616C245.272 57.616 245.96 57.32 246.52 56.728C247.096 56.136 247.384 55.328 247.384 54.304ZM260.553 61.192C259.241 61.192 258.057 60.912 257.001 60.352C255.961 59.792 255.137 58.992 254.529 57.952C253.937 56.912 253.641 55.696 253.641 54.304C253.641 52.928 253.945 51.72 254.553 50.68C255.161 49.624 255.993 48.816 257.049 48.256C258.105 47.696 259.289 47.416 260.601 47.416C261.913 47.416 263.097 47.696 264.153 48.256C265.209 48.816 266.041 49.624 266.649 50.68C267.257 51.72 267.561 52.928 267.561 54.304C267.561 55.68 267.249 56.896 266.625 57.952C266.017 58.992 265.177 59.792 264.105 60.352C263.049 60.912 261.865 61.192 260.553 61.192ZM260.553 57.64C261.337 57.64 262.001 57.352 262.545 56.776C263.105 56.2 263.385 55.376 263.385 54.304C263.385 53.232 263.113 52.408 262.569 51.832C262.041 51.256 261.385 50.968 260.601 50.968C259.801 50.968 259.137 51.256 258.609 51.832C258.081 52.392 257.817 53.216 257.817 54.304C257.817 55.376 258.073 56.2 258.585 56.776C259.113 57.352 259.769 57.64 260.553 57.64ZM273.842 43.24V61H269.738V43.24H273.842ZM282.912 61.192C281.6 61.192 280.416 60.912 279.36 60.352C278.32 59.792 277.496 58.992 276.888 57.952C276.296 56.912 276 55.696 276 54.304C276 52.928 276.304 51.72 276.912 50.68C277.52 49.624 278.352 48.816 279.408 48.256C280.464 47.696 281.648 47.416 282.96 47.416C284.272 47.416 285.456 47.696 286.512 48.256C287.568 48.816 288.4 49.624 289.008 50.68C289.616 51.72 289.92 52.928 289.92 54.304C289.92 55.68 289.608 56.896 288.984 57.952C288.376 58.992 287.536 59.792 286.464 60.352C285.408 60.912 284.224 61.192 282.912 61.192ZM282.912 57.64C283.696 57.64 284.36 57.352 284.904 56.776C285.464 56.2 285.744 55.376 285.744 54.304C285.744 53.232 285.472 52.408 284.928 51.832C284.4 51.256 283.744 50.968 282.96 50.968C282.16 50.968 281.496 51.256 280.968 51.832C280.44 52.392 280.176 53.216 280.176 54.304C280.176 55.376 280.432 56.2 280.944 56.776C281.472 57.352 282.128 57.64 282.912 57.64ZM296.201 49.84C296.681 49.104 297.281 48.528 298.001 48.112C298.721 47.68 299.521 47.464 300.401 47.464V51.808H299.273C298.249 51.808 297.481 52.032 296.969 52.48C296.457 52.912 296.201 53.68 296.201 54.784V61H292.097V47.608H296.201V49.84ZM312.897 61.192C311.729 61.192 310.689 60.992 309.777 60.592C308.865 60.192 308.145 59.648 307.617 58.96C307.089 58.256 306.793 57.472 306.729 56.608H310.785C310.833 57.072 311.049 57.448 311.433 57.736C311.817 58.024 312.289 58.168 312.849 58.168C313.361 58.168 313.753 58.072 314.025 57.88C314.313 57.672 314.457 57.408 314.457 57.088C314.457 56.704 314.257 56.424 313.857 56.248C313.457 56.056 312.809 55.848 311.913 55.624C310.953 55.4 310.153 55.168 309.513 54.928C308.873 54.672 308.321 54.28 307.857 53.752C307.393 53.208 307.161 52.48 307.161 51.568C307.161 50.8 307.369 50.104 307.785 49.48C308.217 48.84 308.841 48.336 309.657 47.968C310.489 47.6 311.473 47.416 312.609 47.416C314.289 47.416 315.609 47.832 316.569 48.664C317.545 49.496 318.105 50.6 318.249 51.976H314.457C314.393 51.512 314.185 51.144 313.833 50.872C313.497 50.6 313.049 50.464 312.489 50.464C312.009 50.464 311.641 50.56 311.385 50.752C311.129 50.928 311.001 51.176 311.001 51.496C311.001 51.88 311.201 52.168 311.601 52.36C312.017 52.552 312.657 52.744 313.521 52.936C314.513 53.192 315.321 53.448 315.945 53.704C316.569 53.944 317.113 54.344 317.577 54.904C318.057 55.448 318.305 56.184 318.321 57.112C318.321 57.896 318.097 58.6 317.649 59.224C317.217 59.832 316.585 60.312 315.753 60.664C314.937 61.016 313.985 61.192 312.897 61.192ZM322.896 46.216C322.176 46.216 321.584 46.008 321.12 45.592C320.672 45.16 320.448 44.632 320.448 44.008C320.448 43.368 320.672 42.84 321.12 42.424C321.584 41.992 322.176 41.776 322.896 41.776C323.6 41.776 324.176 41.992 324.624 42.424C325.088 42.84 325.32 43.368 325.32 44.008C325.32 44.632 325.088 45.16 324.624 45.592C324.176 46.008 323.6 46.216 322.896 46.216ZM324.936 47.608V61H320.832V47.608H324.936ZM335.374 57.52V61H333.286C331.798 61 330.638 60.64 329.806 59.92C328.974 59.184 328.558 57.992 328.558 56.344V51.016H326.926V47.608H328.558V44.344H332.662V47.608H335.35V51.016H332.662V56.392C332.662 56.792 332.758 57.08 332.95 57.256C333.142 57.432 333.462 57.52 333.91 57.52H335.374ZM341.93 54.28C341.93 52.904 342.186 51.696 342.698 50.656C343.226 49.616 343.938 48.816 344.834 48.256C345.73 47.696 346.73 47.416 347.834 47.416C348.778 47.416 349.602 47.608 350.306 47.992C351.026 48.376 351.578 48.88 351.962 49.504V47.608H356.066V61H351.962V59.104C351.562 59.728 351.002 60.232 350.282 60.616C349.578 61 348.754 61.192 347.81 61.192C346.722 61.192 345.73 60.912 344.834 60.352C343.938 59.776 343.226 58.968 342.698 57.928C342.186 56.872 341.93 55.656 341.93 54.28ZM351.962 54.304C351.962 53.28 351.674 52.472 351.098 51.88C350.538 51.288 349.85 50.992 349.034 50.992C348.218 50.992 347.522 51.288 346.946 51.88C346.386 52.456 346.106 53.256 346.106 54.28C346.106 55.304 346.386 56.12 346.946 56.728C347.522 57.32 348.218 57.616 349.034 57.616C349.85 57.616 350.538 57.32 351.098 56.728C351.674 56.136 351.962 55.328 351.962 54.304ZM376.123 47.464C377.787 47.464 379.107 47.968 380.083 48.976C381.075 49.984 381.571 51.384 381.571 53.176V61H377.491V53.728C377.491 52.864 377.259 52.2 376.795 51.736C376.347 51.256 375.723 51.016 374.923 51.016C374.123 51.016 373.491 51.256 373.027 51.736C372.579 52.2 372.355 52.864 372.355 53.728V61H368.275V53.728C368.275 52.864 368.043 52.2 367.579 51.736C367.131 51.256 366.507 51.016 365.707 51.016C364.907 51.016 364.275 51.256 363.811 51.736C363.363 52.2 363.139 52.864 363.139 53.728V61H359.035V47.608H363.139V49.288C363.555 48.728 364.099 48.288 364.771 47.968C365.443 47.632 366.203 47.464 367.051 47.464C368.059 47.464 368.955 47.68 369.739 48.112C370.539 48.544 371.163 49.16 371.611 49.96C372.075 49.224 372.707 48.624 373.507 48.16C374.307 47.696 375.179 47.464 376.123 47.464ZM397.065 54.088C397.065 54.472 397.041 54.872 396.993 55.288H387.705C387.769 56.12 388.033 56.76 388.497 57.208C388.977 57.64 389.561 57.856 390.249 57.856C391.273 57.856 391.985 57.424 392.385 56.56H396.753C396.529 57.44 396.121 58.232 395.529 58.936C394.953 59.64 394.225 60.192 393.345 60.592C392.465 60.992 391.481 61.192 390.393 61.192C389.081 61.192 387.913 60.912 386.889 60.352C385.865 59.792 385.065 58.992 384.489 57.952C383.913 56.912 383.625 55.696 383.625 54.304C383.625 52.912 383.905 51.696 384.465 50.656C385.041 49.616 385.841 48.816 386.865 48.256C387.889 47.696 389.065 47.416 390.393 47.416C391.689 47.416 392.841 47.688 393.849 48.232C394.857 48.776 395.641 49.552 396.201 50.56C396.777 51.568 397.065 52.744 397.065 54.088ZM392.865 53.008C392.865 52.304 392.625 51.744 392.145 51.328C391.665 50.912 391.065 50.704 390.345 50.704C389.657 50.704 389.073 50.904 388.593 51.304C388.129 51.704 387.841 52.272 387.729 53.008H392.865ZM406.694 57.52V61H404.606C403.118 61 401.958 60.64 401.126 59.92C400.294 59.184 399.878 57.992 399.878 56.344V51.016H398.246V47.608H399.878V44.344H403.982V47.608H406.67V51.016H403.982V56.392C403.982 56.792 404.078 57.08 404.27 57.256C404.462 57.432 404.782 57.52 405.23 57.52H406.694ZM413.396 57.208L410.732 64.096H408.116L409.508 57.208H413.396ZM71.672 90.304C71.672 88.912 71.952 87.696 72.512 86.656C73.088 85.616 73.88 84.816 74.888 84.256C75.912 83.696 77.08 83.416 78.392 83.416C80.072 83.416 81.472 83.856 82.592 84.736C83.728 85.616 84.472 86.856 84.824 88.456H80.456C80.088 87.432 79.376 86.92 78.32 86.92C77.568 86.92 76.968 87.216 76.52 87.808C76.072 88.384 75.848 89.216 75.848 90.304C75.848 91.392 76.072 92.232 76.52 92.824C76.968 93.4 77.568 93.688 78.32 93.688C79.376 93.688 80.088 93.176 80.456 92.152H84.824C84.472 93.72 83.728 94.952 82.592 95.848C81.456 96.744 80.056 97.192 78.392 97.192C77.08 97.192 75.912 96.912 74.888 96.352C73.88 95.792 73.088 94.992 72.512 93.952C71.952 92.912 71.672 91.696 71.672 90.304ZM93.1153 97.192C91.8033 97.192 90.6193 96.912 89.5633 96.352C88.5233 95.792 87.6993 94.992 87.0913 93.952C86.4993 92.912 86.2033 91.696 86.2033 90.304C86.2033 88.928 86.5073 87.72 87.1152 86.68C87.7233 85.624 88.5553 84.816 89.6113 84.256C90.6673 83.696 91.8513 83.416 93.1633 83.416C94.4753 83.416 95.6593 83.696 96.7153 84.256C97.7713 84.816 98.6033 85.624 99.2113 86.68C99.8193 87.72 100.123 88.928 100.123 90.304C100.123 91.68 99.8113 92.896 99.1873 93.952C98.5793 94.992 97.7393 95.792 96.6673 96.352C95.6113 96.912 94.4273 97.192 93.1153 97.192ZM93.1153 93.64C93.8993 93.64 94.5633 93.352 95.1073 92.776C95.6673 92.2 95.9473 91.376 95.9473 90.304C95.9473 89.232 95.6753 88.408 95.1313 87.832C94.6033 87.256 93.9473 86.968 93.1633 86.968C92.3633 86.968 91.6993 87.256 91.1713 87.832C90.6433 88.392 90.3793 89.216 90.3793 90.304C90.3793 91.376 90.6353 92.2 91.1473 92.776C91.6753 93.352 92.3313 93.64 93.1153 93.64ZM110.461 83.464C112.029 83.464 113.277 83.976 114.205 85C115.149 86.008 115.621 87.4 115.621 89.176V97H111.541V89.728C111.541 88.832 111.309 88.136 110.845 87.64C110.381 87.144 109.757 86.896 108.973 86.896C108.189 86.896 107.565 87.144 107.101 87.64C106.637 88.136 106.405 88.832 106.405 89.728V97H102.301V83.608H106.405V85.384C106.821 84.792 107.381 84.328 108.085 83.992C108.789 83.64 109.581 83.464 110.461 83.464ZM123.92 97.192C122.752 97.192 121.712 96.992 120.8 96.592C119.888 96.192 119.168 95.648 118.64 94.96C118.112 94.256 117.816 93.472 117.752 92.608H121.808C121.856 93.072 122.072 93.448 122.456 93.736C122.84 94.024 123.312 94.168 123.872 94.168C124.384 94.168 124.776 94.072 125.048 93.88C125.336 93.672 125.48 93.408 125.48 93.088C125.48 92.704 125.28 92.424 124.88 92.248C124.48 92.056 123.832 91.848 122.936 91.624C121.976 91.4 121.176 91.168 120.536 90.928C119.896 90.672 119.344 90.28 118.88 89.752C118.416 89.208 118.184 88.48 118.184 87.568C118.184 86.8 118.392 86.104 118.808 85.48C119.24 84.84 119.864 84.336 120.68 83.968C121.512 83.6 122.496 83.416 123.632 83.416C125.312 83.416 126.632 83.832 127.592 84.664C128.568 85.496 129.128 86.6 129.272 87.976H125.48C125.416 87.512 125.208 87.144 124.856 86.872C124.52 86.6 124.072 86.464 123.512 86.464C123.032 86.464 122.664 86.56 122.408 86.752C122.152 86.928 122.024 87.176 122.024 87.496C122.024 87.88 122.224 88.168 122.624 88.36C123.04 88.552 123.68 88.744 124.544 88.936C125.536 89.192 126.344 89.448 126.968 89.704C127.592 89.944 128.136 90.344 128.6 90.904C129.08 91.448 129.328 92.184 129.344 93.112C129.344 93.896 129.12 94.6 128.672 95.224C128.24 95.832 127.608 96.312 126.776 96.664C125.96 97.016 125.008 97.192 123.92 97.192ZM144.479 90.088C144.479 90.472 144.455 90.872 144.407 91.288H135.119C135.183 92.12 135.447 92.76 135.911 93.208C136.391 93.64 136.975 93.856 137.663 93.856C138.687 93.856 139.399 93.424 139.799 92.56H144.167C143.943 93.44 143.535 94.232 142.943 94.936C142.367 95.64 141.639 96.192 140.759 96.592C139.879 96.992 138.895 97.192 137.807 97.192C136.495 97.192 135.327 96.912 134.303 96.352C133.279 95.792 132.479 94.992 131.903 93.952C131.327 92.912 131.039 91.696 131.039 90.304C131.039 88.912 131.319 87.696 131.879 86.656C132.455 85.616 133.255 84.816 134.279 84.256C135.303 83.696 136.479 83.416 137.807 83.416C139.103 83.416 140.255 83.688 141.263 84.232C142.271 84.776 143.055 85.552 143.615 86.56C144.191 87.568 144.479 88.744 144.479 90.088ZM140.279 89.008C140.279 88.304 140.039 87.744 139.559 87.328C139.079 86.912 138.479 86.704 137.759 86.704C137.071 86.704 136.487 86.904 136.007 87.304C135.543 87.704 135.255 88.272 135.143 89.008H140.279ZM145.828 90.304C145.828 88.912 146.108 87.696 146.668 86.656C147.244 85.616 148.036 84.816 149.044 84.256C150.068 83.696 151.236 83.416 152.548 83.416C154.228 83.416 155.628 83.856 156.748 84.736C157.884 85.616 158.628 86.856 158.98 88.456H154.612C154.244 87.432 153.532 86.92 152.476 86.92C151.724 86.92 151.124 87.216 150.676 87.808C150.228 88.384 150.004 89.216 150.004 90.304C150.004 91.392 150.228 92.232 150.676 92.824C151.124 93.4 151.724 93.688 152.476 93.688C153.532 93.688 154.244 93.176 154.612 92.152H158.98C158.628 93.72 157.884 94.952 156.748 95.848C155.612 96.744 154.212 97.192 152.548 97.192C151.236 97.192 150.068 96.912 149.044 96.352C148.036 95.792 147.244 94.992 146.668 93.952C146.108 92.912 145.828 91.696 145.828 90.304ZM168.64 93.52V97H166.552C165.064 97 163.904 96.64 163.072 95.92C162.24 95.184 161.824 93.992 161.824 92.344V87.016H160.192V83.608H161.824V80.344H165.928V83.608H168.616V87.016H165.928V92.392C165.928 92.792 166.024 93.08 166.216 93.256C166.408 93.432 166.728 93.52 167.176 93.52H168.64ZM183.549 90.088C183.549 90.472 183.526 90.872 183.478 91.288H174.19C174.254 92.12 174.518 92.76 174.982 93.208C175.462 93.64 176.046 93.856 176.734 93.856C177.758 93.856 178.47 93.424 178.87 92.56H183.238C183.014 93.44 182.606 94.232 182.014 94.936C181.438 95.64 180.71 96.192 179.83 96.592C178.95 96.992 177.966 97.192 176.878 97.192C175.566 97.192 174.398 96.912 173.374 96.352C172.35 95.792 171.55 94.992 170.974 93.952C170.398 92.912 170.11 91.696 170.11 90.304C170.11 88.912 170.39 87.696 170.95 86.656C171.526 85.616 172.326 84.816 173.35 84.256C174.374 83.696 175.55 83.416 176.878 83.416C178.174 83.416 179.326 83.688 180.334 84.232C181.342 84.776 182.126 85.552 182.686 86.56C183.262 87.568 183.549 88.744 183.549 90.088ZM179.35 89.008C179.35 88.304 179.11 87.744 178.63 87.328C178.15 86.912 177.55 86.704 176.83 86.704C176.142 86.704 175.558 86.904 175.078 87.304C174.614 87.704 174.326 88.272 174.214 89.008H179.35ZM193.179 93.52V97H191.091C189.603 97 188.443 96.64 187.611 95.92C186.779 95.184 186.363 93.992 186.363 92.344V87.016H184.731V83.608H186.363V80.344H190.467V83.608H193.155V87.016H190.467V92.392C190.467 92.792 190.563 93.08 190.755 93.256C190.947 93.432 191.267 93.52 191.715 93.52H193.179ZM208.689 83.608V97H204.585V95.176C204.169 95.768 203.601 96.248 202.881 96.616C202.177 96.968 201.393 97.144 200.529 97.144C199.505 97.144 198.601 96.92 197.817 96.472C197.033 96.008 196.425 95.344 195.993 94.48C195.561 93.616 195.345 92.6 195.345 91.432V83.608H199.425V90.88C199.425 91.776 199.657 92.472 200.121 92.968C200.585 93.464 201.209 93.712 201.993 93.712C202.793 93.712 203.425 93.464 203.889 92.968C204.353 92.472 204.585 91.776 204.585 90.88V83.608H208.689ZM215.74 85.84C216.22 85.104 216.82 84.528 217.54 84.112C218.26 83.68 219.06 83.464 219.94 83.464V87.808H218.812C217.788 87.808 217.02 88.032 216.508 88.48C215.996 88.912 215.74 89.68 215.74 90.784V97H211.636V83.608H215.74V85.84ZM226.172 90.28C226.172 88.904 226.428 87.696 226.94 86.656C227.468 85.616 228.18 84.816 229.076 84.256C229.972 83.696 230.972 83.416 232.076 83.416C233.02 83.416 233.844 83.608 234.548 83.992C235.268 84.376 235.82 84.88 236.204 85.504V83.608H240.308V97H236.204V95.104C235.804 95.728 235.244 96.232 234.524 96.616C233.82 97 232.996 97.192 232.052 97.192C230.964 97.192 229.972 96.912 229.076 96.352C228.18 95.776 227.468 94.968 226.94 93.928C226.428 92.872 226.172 91.656 226.172 90.28ZM236.204 90.304C236.204 89.28 235.916 88.472 235.34 87.88C234.78 87.288 234.092 86.992 233.276 86.992C232.46 86.992 231.764 87.288 231.188 87.88C230.628 88.456 230.348 89.256 230.348 90.28C230.348 91.304 230.628 92.12 231.188 92.728C231.764 93.32 232.46 93.616 233.276 93.616C234.092 93.616 234.78 93.32 235.34 92.728C235.916 92.136 236.204 91.328 236.204 90.304ZM242.461 90.28C242.461 88.904 242.717 87.696 243.229 86.656C243.757 85.616 244.469 84.816 245.365 84.256C246.261 83.696 247.261 83.416 248.365 83.416C249.245 83.416 250.045 83.6 250.765 83.968C251.501 84.336 252.077 84.832 252.493 85.456V79.24H256.597V97H252.493V95.08C252.109 95.72 251.557 96.232 250.837 96.616C250.133 97 249.309 97.192 248.365 97.192C247.261 97.192 246.261 96.912 245.365 96.352C244.469 95.776 243.757 94.968 243.229 93.928C242.717 92.872 242.461 91.656 242.461 90.28ZM252.493 90.304C252.493 89.28 252.205 88.472 251.629 87.88C251.069 87.288 250.381 86.992 249.565 86.992C248.749 86.992 248.053 87.288 247.477 87.88C246.917 88.456 246.637 89.256 246.637 90.28C246.637 91.304 246.917 92.12 247.477 92.728C248.053 93.32 248.749 93.616 249.565 93.616C250.381 93.616 251.069 93.32 251.629 92.728C252.205 92.136 252.493 91.328 252.493 90.304ZM261.63 82.216C260.91 82.216 260.318 82.008 259.854 81.592C259.406 81.16 259.182 80.632 259.182 80.008C259.182 79.368 259.406 78.84 259.854 78.424C260.318 77.992 260.91 77.776 261.63 77.776C262.334 77.776 262.91 77.992 263.358 78.424C263.822 78.84 264.054 79.368 264.054 80.008C264.054 80.632 263.822 81.16 263.358 81.592C262.91 82.008 262.334 82.216 261.63 82.216ZM263.67 83.608V97H259.566V83.608H263.67ZM270.748 85.504C271.148 84.88 271.7 84.376 272.404 83.992C273.108 83.608 273.932 83.416 274.876 83.416C275.98 83.416 276.98 83.696 277.876 84.256C278.772 84.816 279.476 85.616 279.988 86.656C280.516 87.696 280.78 88.904 280.78 90.28C280.78 91.656 280.516 92.872 279.988 93.928C279.476 94.968 278.772 95.776 277.876 96.352C276.98 96.912 275.98 97.192 274.876 97.192C273.948 97.192 273.124 97 272.404 96.616C271.7 96.232 271.148 95.736 270.748 95.128V103.384H266.644V83.608H270.748V85.504ZM276.604 90.28C276.604 89.256 276.316 88.456 275.74 87.88C275.18 87.288 274.484 86.992 273.652 86.992C272.836 86.992 272.14 87.288 271.564 87.88C271.004 88.472 270.724 89.28 270.724 90.304C270.724 91.328 271.004 92.136 271.564 92.728C272.14 93.32 272.836 93.616 273.652 93.616C274.468 93.616 275.164 93.32 275.74 92.728C276.316 92.12 276.604 91.304 276.604 90.28ZM284.997 82.216C284.277 82.216 283.685 82.008 283.221 81.592C282.773 81.16 282.549 80.632 282.549 80.008C282.549 79.368 282.773 78.84 283.221 78.424C283.685 77.992 284.277 77.776 284.997 77.776C285.701 77.776 286.277 77.992 286.725 78.424C287.189 78.84 287.421 79.368 287.421 80.008C287.421 80.632 287.189 81.16 286.725 81.592C286.277 82.008 285.701 82.216 284.997 82.216ZM287.037 83.608V97H282.933V83.608H287.037ZM295.459 97.192C294.291 97.192 293.251 96.992 292.339 96.592C291.427 96.192 290.707 95.648 290.179 94.96C289.651 94.256 289.355 93.472 289.291 92.608H293.347C293.395 93.072 293.611 93.448 293.995 93.736C294.379 94.024 294.851 94.168 295.411 94.168C295.923 94.168 296.315 94.072 296.587 93.88C296.875 93.672 297.019 93.408 297.019 93.088C297.019 92.704 296.819 92.424 296.419 92.248C296.019 92.056 295.371 91.848 294.475 91.624C293.515 91.4 292.715 91.168 292.075 90.928C291.435 90.672 290.883 90.28 290.419 89.752C289.955 89.208 289.723 88.48 289.723 87.568C289.723 86.8 289.931 86.104 290.347 85.48C290.779 84.84 291.403 84.336 292.219 83.968C293.051 83.6 294.035 83.416 295.171 83.416C296.851 83.416 298.171 83.832 299.131 84.664C300.107 85.496 300.667 86.6 300.811 87.976H297.019C296.955 87.512 296.747 87.144 296.395 86.872C296.059 86.6 295.611 86.464 295.051 86.464C294.571 86.464 294.203 86.56 293.947 86.752C293.691 86.928 293.563 87.176 293.563 87.496C293.563 87.88 293.763 88.168 294.163 88.36C294.579 88.552 295.219 88.744 296.083 88.936C297.075 89.192 297.883 89.448 298.507 89.704C299.131 89.944 299.675 90.344 300.139 90.904C300.619 91.448 300.867 92.184 300.883 93.112C300.883 93.896 300.659 94.6 300.211 95.224C299.779 95.832 299.147 96.312 298.315 96.664C297.499 97.016 296.547 97.192 295.459 97.192ZM302.578 90.304C302.578 88.912 302.858 87.696 303.418 86.656C303.994 85.616 304.786 84.816 305.794 84.256C306.818 83.696 307.986 83.416 309.298 83.416C310.978 83.416 312.378 83.856 313.498 84.736C314.634 85.616 315.378 86.856 315.73 88.456H311.362C310.994 87.432 310.282 86.92 309.226 86.92C308.474 86.92 307.874 87.216 307.426 87.808C306.978 88.384 306.754 89.216 306.754 90.304C306.754 91.392 306.978 92.232 307.426 92.824C307.874 93.4 308.474 93.688 309.226 93.688C310.282 93.688 310.994 93.176 311.362 92.152H315.73C315.378 93.72 314.634 94.952 313.498 95.848C312.362 96.744 310.962 97.192 309.298 97.192C307.986 97.192 306.818 96.912 305.794 96.352C304.786 95.792 303.994 94.992 303.418 93.952C302.858 92.912 302.578 91.696 302.578 90.304ZM319.99 82.216C319.27 82.216 318.678 82.008 318.214 81.592C317.766 81.16 317.542 80.632 317.542 80.008C317.542 79.368 317.766 78.84 318.214 78.424C318.678 77.992 319.27 77.776 319.99 77.776C320.694 77.776 321.27 77.992 321.718 78.424C322.182 78.84 322.414 79.368 322.414 80.008C322.414 80.632 322.182 81.16 321.718 81.592C321.27 82.008 320.694 82.216 319.99 82.216ZM322.03 83.608V97H317.926V83.608H322.03ZM333.164 83.464C334.732 83.464 335.98 83.976 336.908 85C337.852 86.008 338.324 87.4 338.324 89.176V97H334.244V89.728C334.244 88.832 334.012 88.136 333.548 87.64C333.084 87.144 332.46 86.896 331.676 86.896C330.892 86.896 330.268 87.144 329.804 87.64C329.34 88.136 329.108 88.832 329.108 89.728V97H325.004V83.608H329.108V85.384C329.524 84.792 330.084 84.328 330.788 83.992C331.492 83.64 332.284 83.464 333.164 83.464ZM346.264 83.416C347.208 83.416 348.032 83.608 348.736 83.992C349.456 84.376 350.008 84.88 350.392 85.504V83.608H354.496V96.976C354.496 98.208 354.248 99.32 353.752 100.312C353.272 101.32 352.528 102.12 351.52 102.712C350.528 103.304 349.288 103.6 347.8 103.6C345.816 103.6 344.208 103.128 342.976 102.184C341.744 101.256 341.04 99.992 340.864 98.392H344.92C345.048 98.904 345.352 99.304 345.832 99.592C346.312 99.896 346.904 100.048 347.608 100.048C348.456 100.048 349.128 99.8 349.624 99.304C350.136 98.824 350.392 98.048 350.392 96.976V95.08C349.992 95.704 349.44 96.216 348.736 96.616C348.032 97 347.208 97.192 346.264 97.192C345.16 97.192 344.16 96.912 343.264 96.352C342.368 95.776 341.656 94.968 341.128 93.928C340.616 92.872 340.36 91.656 340.36 90.28C340.36 88.904 340.616 87.696 341.128 86.656C341.656 85.616 342.368 84.816 343.264 84.256C344.16 83.696 345.16 83.416 346.264 83.416ZM350.392 90.304C350.392 89.28 350.104 88.472 349.528 87.88C348.968 87.288 348.28 86.992 347.464 86.992C346.648 86.992 345.952 87.288 345.376 87.88C344.816 88.456 344.536 89.256 344.536 90.28C344.536 91.304 344.816 92.12 345.376 92.728C345.952 93.32 346.648 93.616 347.464 93.616C348.28 93.616 348.968 93.32 349.528 92.728C350.104 92.136 350.392 91.328 350.392 90.304ZM375.174 90.088C375.174 90.472 375.151 90.872 375.103 91.288H365.815C365.879 92.12 366.143 92.76 366.607 93.208C367.087 93.64 367.671 93.856 368.359 93.856C369.383 93.856 370.095 93.424 370.495 92.56H374.863C374.639 93.44 374.231 94.232 373.639 94.936C373.063 95.64 372.335 96.192 371.455 96.592C370.575 96.992 369.591 97.192 368.503 97.192C367.191 97.192 366.023 96.912 364.999 96.352C363.975 95.792 363.175 94.992 362.599 93.952C362.023 92.912 361.735 91.696 361.735 90.304C361.735 88.912 362.015 87.696 362.575 86.656C363.151 85.616 363.951 84.816 364.975 84.256C365.999 83.696 367.175 83.416 368.503 83.416C369.799 83.416 370.951 83.688 371.959 84.232C372.967 84.776 373.751 85.552 374.311 86.56C374.887 87.568 375.174 88.744 375.174 90.088ZM370.975 89.008C370.975 88.304 370.735 87.744 370.255 87.328C369.775 86.912 369.175 86.704 368.455 86.704C367.767 86.704 367.183 86.904 366.703 87.304C366.239 87.704 365.951 88.272 365.839 89.008H370.975ZM381.444 79.24V97H377.34V79.24H381.444ZM386.482 82.216C385.762 82.216 385.17 82.008 384.706 81.592C384.258 81.16 384.034 80.632 384.034 80.008C384.034 79.368 384.258 78.84 384.706 78.424C385.17 77.992 385.762 77.776 386.482 77.776C387.186 77.776 387.762 77.992 388.21 78.424C388.674 78.84 388.906 79.368 388.906 80.008C388.906 80.632 388.674 81.16 388.21 81.592C387.762 82.008 387.186 82.216 386.482 82.216ZM388.522 83.608V97H384.418V83.608H388.522ZM398.96 93.52V97H396.872C395.384 97 394.224 96.64 393.392 95.92C392.56 95.184 392.144 93.992 392.144 92.344V87.016H390.512V83.608H392.144V80.344H396.248V83.608H398.936V87.016H396.248V92.392C396.248 92.792 396.344 93.08 396.536 93.256C396.728 93.432 397.048 93.52 397.496 93.52H398.96ZM403.166 97.192C402.446 97.192 401.854 96.984 401.39 96.568C400.942 96.136 400.718 95.608 400.718 94.984C400.718 94.344 400.942 93.808 401.39 93.376C401.854 92.944 402.446 92.728 403.166 92.728C403.87 92.728 404.446 92.944 404.894 93.376C405.358 93.808 405.59 94.344 405.59 94.984C405.59 95.608 405.358 96.136 404.894 96.568C404.446 96.984 403.87 97.192 403.166 97.192Z" fill="white"/>
<path fill-rule="evenodd" clip-rule="evenodd" d="M55 37.271V46.4065C55 48.9355 52.8947 51 50.3158 51H41C38.421 51 36.3158 48.9355 36.3158 46.4065V37.271C36.3158 27.1548 44.6842 19 54.9474 19V25.4516C50.1579 25.7613 46.0526 28.6516 44.1053 32.729H50.3158C52.8947 32.729 55 34.7419 55 37.271ZM27 51H17.6842C15.1053 51 13 48.9355 13 46.4065V37.271C13 27.1548 21.3684 19 31.6316 19V25.4516C26.8421 25.7613 22.7368 28.6516 20.7895 32.729H27C29.5789 32.729 31.6842 34.7935 31.6842 37.3226V46.4581C31.6842 48.9355 29.5789 51 27 51Z" fill="white"/>
<path fill-rule="evenodd" clip-rule="evenodd" d="M422.031 94.8244L422.011 85.689C422.005 83.1599 424.105 81.0906 426.684 81.0848L436 81.0636C438.579 81.0578 440.689 83.1175 440.695 85.6465L440.716 94.782C440.738 104.898 432.389 113.072 422.125 113.095L422.111 106.644C426.9 106.323 430.998 103.423 432.936 99.3416L426.726 99.3557C424.147 99.3616 422.037 97.3535 422.031 94.8244ZM450 81.0318L459.316 81.0106C461.895 81.0048 464.005 83.0645 464.01 85.5935L464.031 94.729C464.054 104.845 455.704 113.019 445.441 113.042L445.427 106.591C450.215 106.27 454.314 103.37 456.252 99.2886L450.042 99.3027C447.463 99.3086 445.353 97.2489 445.347 94.7198L445.326 85.5844C445.321 83.107 447.421 81.0377 450 81.0318Z" fill="white"/>
</svg>
