<svg width="545" height="204" viewBox="0 0 545 204" fill="none" xmlns="http://www.w3.org/2000/svg">
<rect width="545" height="204" rx="30" fill="#433C3C"/>
<path d="M362.165 166.872V170.28H351.605V166.872H362.165ZM369.871 173.832H375.247V177H365.767V160.152H369.871V173.832ZM383.3 177.192C381.988 177.192 380.804 176.912 379.748 176.352C378.708 175.792 377.884 174.992 377.276 173.952C376.684 172.912 376.388 171.696 376.388 170.304C376.388 168.928 376.692 167.72 377.3 166.68C377.908 165.624 378.74 164.816 379.796 164.256C380.852 163.696 382.036 163.416 383.348 163.416C384.66 163.416 385.844 163.696 386.9 164.256C387.956 164.816 388.788 165.624 389.396 166.68C390.004 167.72 390.308 168.928 390.308 170.304C390.308 171.68 389.996 172.896 389.372 173.952C388.764 174.992 387.924 175.792 386.852 176.352C385.796 176.912 384.612 177.192 383.3 177.192ZM383.3 173.64C384.084 173.64 384.748 173.352 385.292 172.776C385.852 172.2 386.132 171.376 386.132 170.304C386.132 169.232 385.86 168.408 385.316 167.832C384.788 167.256 384.132 166.968 383.348 166.968C382.548 166.968 381.884 167.256 381.356 167.832C380.828 168.392 380.564 169.216 380.564 170.304C380.564 171.376 380.82 172.2 381.332 172.776C381.86 173.352 382.516 173.64 383.3 173.64ZM396.59 165.84C397.07 165.104 397.67 164.528 398.39 164.112C399.11 163.68 399.91 163.464 400.79 163.464V167.808H399.662C398.638 167.808 397.87 168.032 397.358 168.48C396.846 168.912 396.59 169.68 396.59 170.784V177H392.486V163.608H396.59V165.84ZM415.375 170.088C415.375 170.472 415.351 170.872 415.303 171.288H406.015C406.079 172.12 406.343 172.76 406.807 173.208C407.287 173.64 407.871 173.856 408.559 173.856C409.583 173.856 410.295 173.424 410.695 172.56H415.063C414.839 173.44 414.431 174.232 413.839 174.936C413.263 175.64 412.535 176.192 411.655 176.592C410.775 176.992 409.791 177.192 408.703 177.192C407.391 177.192 406.223 176.912 405.199 176.352C404.175 175.792 403.375 174.992 402.799 173.952C402.223 172.912 401.935 171.696 401.935 170.304C401.935 168.912 402.215 167.696 402.775 166.656C403.351 165.616 404.151 164.816 405.175 164.256C406.199 163.696 407.375 163.416 408.703 163.416C409.999 163.416 411.151 163.688 412.159 164.232C413.167 164.776 413.951 165.552 414.511 166.56C415.087 167.568 415.375 168.744 415.375 170.088ZM411.175 169.008C411.175 168.304 410.935 167.744 410.455 167.328C409.975 166.912 409.375 166.704 408.655 166.704C407.967 166.704 407.383 166.904 406.903 167.304C406.439 167.704 406.151 168.272 406.039 169.008H411.175ZM434.628 163.464C436.292 163.464 437.612 163.968 438.588 164.976C439.58 165.984 440.076 167.384 440.076 169.176V177H435.996V169.728C435.996 168.864 435.764 168.2 435.3 167.736C434.852 167.256 434.228 167.016 433.428 167.016C432.628 167.016 431.996 167.256 431.532 167.736C431.084 168.2 430.86 168.864 430.86 169.728V177H426.78V169.728C426.78 168.864 426.548 168.2 426.084 167.736C425.636 167.256 425.012 167.016 424.212 167.016C423.412 167.016 422.78 167.256 422.316 167.736C421.868 168.2 421.644 168.864 421.644 169.728V177H417.54V163.608H421.644V165.288C422.06 164.728 422.604 164.288 423.276 163.968C423.948 163.632 424.708 163.464 425.556 163.464C426.564 163.464 427.46 163.68 428.244 164.112C429.044 164.544 429.668 165.16 430.116 165.96C430.58 165.224 431.212 164.624 432.012 164.16C432.812 163.696 433.684 163.464 434.628 163.464ZM450.096 162.216C449.376 162.216 448.784 162.008 448.32 161.592C447.872 161.16 447.648 160.632 447.648 160.008C447.648 159.368 447.872 158.84 448.32 158.424C448.784 157.992 449.376 157.776 450.096 157.776C450.8 157.776 451.376 157.992 451.824 158.424C452.288 158.84 452.52 159.368 452.52 160.008C452.52 160.632 452.288 161.16 451.824 161.592C451.376 162.008 450.8 162.216 450.096 162.216ZM452.136 163.608V177H448.032V163.608H452.136ZM459.215 165.504C459.615 164.88 460.167 164.376 460.871 163.992C461.575 163.608 462.399 163.416 463.343 163.416C464.447 163.416 465.447 163.696 466.343 164.256C467.239 164.816 467.943 165.616 468.455 166.656C468.983 167.696 469.247 168.904 469.247 170.28C469.247 171.656 468.983 172.872 468.455 173.928C467.943 174.968 467.239 175.776 466.343 176.352C465.447 176.912 464.447 177.192 463.343 177.192C462.415 177.192 461.591 177 460.871 176.616C460.167 176.232 459.615 175.736 459.215 175.128V183.384H455.111V163.608H459.215V165.504ZM465.071 170.28C465.071 169.256 464.783 168.456 464.207 167.88C463.647 167.288 462.951 166.992 462.119 166.992C461.303 166.992 460.607 167.288 460.031 167.88C459.471 168.472 459.191 169.28 459.191 170.304C459.191 171.328 459.471 172.136 460.031 172.728C460.607 173.32 461.303 173.616 462.119 173.616C462.935 173.616 463.631 173.32 464.207 172.728C464.783 172.12 465.071 171.304 465.071 170.28ZM476.848 177.192C475.68 177.192 474.64 176.992 473.728 176.592C472.816 176.192 472.096 175.648 471.568 174.96C471.04 174.256 470.744 173.472 470.68 172.608H474.736C474.784 173.072 475 173.448 475.384 173.736C475.768 174.024 476.24 174.168 476.8 174.168C477.312 174.168 477.704 174.072 477.976 173.88C478.264 173.672 478.408 173.408 478.408 173.088C478.408 172.704 478.208 172.424 477.808 172.248C477.408 172.056 476.76 171.848 475.864 171.624C474.904 171.4 474.104 171.168 473.464 170.928C472.824 170.672 472.272 170.28 471.808 169.752C471.344 169.208 471.112 168.48 471.112 167.568C471.112 166.8 471.32 166.104 471.736 165.48C472.168 164.84 472.792 164.336 473.608 163.968C474.44 163.6 475.424 163.416 476.56 163.416C478.24 163.416 479.56 163.832 480.52 164.664C481.496 165.496 482.056 166.6 482.2 167.976H478.408C478.344 167.512 478.136 167.144 477.784 166.872C477.448 166.6 477 166.464 476.44 166.464C475.96 166.464 475.592 166.56 475.336 166.752C475.08 166.928 474.952 167.176 474.952 167.496C474.952 167.88 475.152 168.168 475.552 168.36C475.968 168.552 476.608 168.744 477.472 168.936C478.464 169.192 479.272 169.448 479.896 169.704C480.52 169.944 481.064 170.344 481.528 170.904C482.008 171.448 482.256 172.184 482.272 173.112C482.272 173.896 482.048 174.6 481.6 175.224C481.168 175.832 480.536 176.312 479.704 176.664C478.888 177.016 477.936 177.192 476.848 177.192ZM498.006 163.608V177H493.902V175.176C493.486 175.768 492.918 176.248 492.198 176.616C491.494 176.968 490.71 177.144 489.846 177.144C488.822 177.144 487.918 176.92 487.134 176.472C486.35 176.008 485.742 175.344 485.31 174.48C484.878 173.616 484.662 172.6 484.662 171.432V163.608H488.742V170.88C488.742 171.776 488.974 172.472 489.438 172.968C489.902 173.464 490.526 173.712 491.31 173.712C492.11 173.712 492.742 173.464 493.206 172.968C493.67 172.472 493.902 171.776 493.902 170.88V163.608H498.006ZM518.042 163.464C519.706 163.464 521.026 163.968 522.002 164.976C522.994 165.984 523.49 167.384 523.49 169.176V177H519.41V169.728C519.41 168.864 519.178 168.2 518.714 167.736C518.266 167.256 517.642 167.016 516.842 167.016C516.042 167.016 515.41 167.256 514.946 167.736C514.498 168.2 514.274 168.864 514.274 169.728V177H510.194V169.728C510.194 168.864 509.962 168.2 509.498 167.736C509.05 167.256 508.426 167.016 507.626 167.016C506.826 167.016 506.194 167.256 505.73 167.736C505.282 168.2 505.058 168.864 505.058 169.728V177H500.954V163.608H505.058V165.288C505.474 164.728 506.018 164.288 506.69 163.968C507.362 163.632 508.122 163.464 508.97 163.464C509.978 163.464 510.874 163.68 511.658 164.112C512.458 164.544 513.082 165.16 513.53 165.96C513.994 165.224 514.626 164.624 515.426 164.16C516.226 163.696 517.098 163.464 518.042 163.464Z" fill="white"/>
<path d="M112.8 64.152C114.576 64.152 116.128 64.504 117.456 65.208C118.784 65.912 119.808 66.904 120.528 68.184C121.264 69.448 121.632 70.912 121.632 72.576C121.632 74.224 121.264 75.688 120.528 76.968C119.808 78.248 118.776 79.24 117.432 79.944C116.104 80.648 114.56 81 112.8 81H106.488V64.152H112.8ZM112.536 77.448C114.088 77.448 115.296 77.024 116.16 76.176C117.024 75.328 117.456 74.128 117.456 72.576C117.456 71.024 117.024 69.816 116.16 68.952C115.296 68.088 114.088 67.656 112.536 67.656H110.592V77.448H112.536ZM136.549 74.088C136.549 74.472 136.526 74.872 136.478 75.288H127.19C127.254 76.12 127.518 76.76 127.982 77.208C128.462 77.64 129.046 77.856 129.734 77.856C130.758 77.856 131.47 77.424 131.87 76.56H136.238C136.014 77.44 135.606 78.232 135.014 78.936C134.438 79.64 133.71 80.192 132.83 80.592C131.95 80.992 130.966 81.192 129.878 81.192C128.566 81.192 127.398 80.912 126.374 80.352C125.35 79.792 124.55 78.992 123.974 77.952C123.398 76.912 123.11 75.696 123.11 74.304C123.11 72.912 123.39 71.696 123.95 70.656C124.526 69.616 125.326 68.816 126.35 68.256C127.374 67.696 128.55 67.416 129.878 67.416C131.174 67.416 132.326 67.688 133.334 68.232C134.342 68.776 135.126 69.552 135.686 70.56C136.262 71.568 136.549 72.744 136.549 74.088ZM132.35 73.008C132.35 72.304 132.11 71.744 131.63 71.328C131.15 70.912 130.55 70.704 129.83 70.704C129.142 70.704 128.558 70.904 128.078 71.304C127.614 71.704 127.326 72.272 127.214 73.008H132.35ZM146.875 67.464C148.443 67.464 149.691 67.976 150.619 69C151.563 70.008 152.035 71.4 152.035 73.176V81H147.955V73.728C147.955 72.832 147.723 72.136 147.259 71.64C146.795 71.144 146.171 70.896 145.387 70.896C144.603 70.896 143.979 71.144 143.515 71.64C143.051 72.136 142.819 72.832 142.819 73.728V81H138.715V67.608H142.819V69.384C143.235 68.792 143.795 68.328 144.499 67.992C145.203 67.64 145.995 67.464 146.875 67.464ZM158.726 77.616H164.534V81H154.142V77.736L159.71 70.992H154.19V67.608H164.414V70.872L158.726 77.616ZM179.417 74.088C179.417 74.472 179.393 74.872 179.345 75.288H170.057C170.121 76.12 170.385 76.76 170.849 77.208C171.329 77.64 171.913 77.856 172.601 77.856C173.625 77.856 174.337 77.424 174.737 76.56H179.105C178.881 77.44 178.473 78.232 177.881 78.936C177.305 79.64 176.577 80.192 175.697 80.592C174.817 80.992 173.833 81.192 172.745 81.192C171.433 81.192 170.265 80.912 169.241 80.352C168.217 79.792 167.417 78.992 166.841 77.952C166.265 76.912 165.977 75.696 165.977 74.304C165.977 72.912 166.257 71.696 166.817 70.656C167.393 69.616 168.193 68.816 169.217 68.256C170.241 67.696 171.417 67.416 172.745 67.416C174.041 67.416 175.193 67.688 176.201 68.232C177.209 68.776 177.993 69.552 178.553 70.56C179.129 71.568 179.417 72.744 179.417 74.088ZM175.217 73.008C175.217 72.304 174.977 71.744 174.497 71.328C174.017 70.912 173.417 70.704 172.697 70.704C172.009 70.704 171.425 70.904 170.945 71.304C170.481 71.704 170.193 72.272 170.081 73.008H175.217ZM185.686 63.24V81H181.582V63.24H185.686ZM192.93 74.28C192.93 72.904 193.186 71.696 193.698 70.656C194.226 69.616 194.938 68.816 195.834 68.256C196.73 67.696 197.73 67.416 198.834 67.416C199.714 67.416 200.514 67.6 201.234 67.968C201.97 68.336 202.546 68.832 202.962 69.456V63.24H207.066V81H202.962V79.08C202.578 79.72 202.026 80.232 201.306 80.616C200.602 81 199.778 81.192 198.834 81.192C197.73 81.192 196.73 80.912 195.834 80.352C194.938 79.776 194.226 78.968 193.698 77.928C193.186 76.872 192.93 75.656 192.93 74.28ZM202.962 74.304C202.962 73.28 202.674 72.472 202.098 71.88C201.538 71.288 200.85 70.992 200.034 70.992C199.218 70.992 198.522 71.288 197.946 71.88C197.386 72.456 197.106 73.256 197.106 74.28C197.106 75.304 197.386 76.12 197.946 76.728C198.522 77.32 199.218 77.616 200.034 77.616C200.85 77.616 201.538 77.32 202.098 76.728C202.674 76.136 202.962 75.328 202.962 74.304ZM216.131 81.192C214.819 81.192 213.635 80.912 212.579 80.352C211.539 79.792 210.715 78.992 210.107 77.952C209.515 76.912 209.219 75.696 209.219 74.304C209.219 72.928 209.523 71.72 210.131 70.68C210.739 69.624 211.571 68.816 212.627 68.256C213.683 67.696 214.867 67.416 216.179 67.416C217.491 67.416 218.675 67.696 219.731 68.256C220.787 68.816 221.619 69.624 222.227 70.68C222.835 71.72 223.139 72.928 223.139 74.304C223.139 75.68 222.827 76.896 222.203 77.952C221.595 78.992 220.755 79.792 219.683 80.352C218.627 80.912 217.443 81.192 216.131 81.192ZM216.131 77.64C216.915 77.64 217.579 77.352 218.123 76.776C218.683 76.2 218.963 75.376 218.963 74.304C218.963 73.232 218.691 72.408 218.147 71.832C217.619 71.256 216.963 70.968 216.179 70.968C215.379 70.968 214.715 71.256 214.187 71.832C213.659 72.392 213.395 73.216 213.395 74.304C213.395 75.376 213.651 76.2 214.163 76.776C214.691 77.352 215.347 77.64 216.131 77.64ZM229.42 63.24V81H225.316V63.24H229.42ZM238.49 81.192C237.178 81.192 235.994 80.912 234.938 80.352C233.898 79.792 233.074 78.992 232.466 77.952C231.874 76.912 231.578 75.696 231.578 74.304C231.578 72.928 231.882 71.72 232.49 70.68C233.098 69.624 233.93 68.816 234.986 68.256C236.042 67.696 237.226 67.416 238.538 67.416C239.85 67.416 241.034 67.696 242.09 68.256C243.146 68.816 243.978 69.624 244.586 70.68C245.194 71.72 245.498 72.928 245.498 74.304C245.498 75.68 245.186 76.896 244.562 77.952C243.954 78.992 243.114 79.792 242.042 80.352C240.986 80.912 239.802 81.192 238.49 81.192ZM238.49 77.64C239.274 77.64 239.938 77.352 240.482 76.776C241.042 76.2 241.322 75.376 241.322 74.304C241.322 73.232 241.05 72.408 240.506 71.832C239.978 71.256 239.322 70.968 238.538 70.968C237.738 70.968 237.074 71.256 236.546 71.832C236.018 72.392 235.754 73.216 235.754 74.304C235.754 75.376 236.01 76.2 236.522 76.776C237.05 77.352 237.706 77.64 238.49 77.64ZM251.78 69.84C252.26 69.104 252.86 68.528 253.58 68.112C254.3 67.68 255.1 67.464 255.98 67.464V71.808H254.852C253.828 71.808 253.06 72.032 252.548 72.48C252.036 72.912 251.78 73.68 251.78 74.784V81H247.676V67.608H251.78V69.84ZM268.475 81.192C267.307 81.192 266.267 80.992 265.355 80.592C264.443 80.192 263.723 79.648 263.195 78.96C262.667 78.256 262.371 77.472 262.307 76.608H266.363C266.411 77.072 266.627 77.448 267.011 77.736C267.395 78.024 267.867 78.168 268.427 78.168C268.939 78.168 269.331 78.072 269.603 77.88C269.891 77.672 270.035 77.408 270.035 77.088C270.035 76.704 269.835 76.424 269.435 76.248C269.035 76.056 268.387 75.848 267.491 75.624C266.531 75.4 265.731 75.168 265.091 74.928C264.451 74.672 263.899 74.28 263.435 73.752C262.971 73.208 262.739 72.48 262.739 71.568C262.739 70.8 262.947 70.104 263.363 69.48C263.795 68.84 264.419 68.336 265.235 67.968C266.067 67.6 267.051 67.416 268.187 67.416C269.867 67.416 271.187 67.832 272.147 68.664C273.123 69.496 273.683 70.6 273.827 71.976H270.035C269.971 71.512 269.763 71.144 269.411 70.872C269.075 70.6 268.627 70.464 268.067 70.464C267.587 70.464 267.219 70.56 266.963 70.752C266.707 70.928 266.579 71.176 266.579 71.496C266.579 71.88 266.779 72.168 267.179 72.36C267.595 72.552 268.235 72.744 269.099 72.936C270.091 73.192 270.899 73.448 271.523 73.704C272.147 73.944 272.691 74.344 273.155 74.904C273.635 75.448 273.883 76.184 273.899 77.112C273.899 77.896 273.675 78.6 273.227 79.224C272.795 79.832 272.163 80.312 271.331 80.664C270.515 81.016 269.563 81.192 268.475 81.192ZM278.474 66.216C277.754 66.216 277.162 66.008 276.698 65.592C276.25 65.16 276.026 64.632 276.026 64.008C276.026 63.368 276.25 62.84 276.698 62.424C277.162 61.992 277.754 61.776 278.474 61.776C279.178 61.776 279.754 61.992 280.202 62.424C280.666 62.84 280.898 63.368 280.898 64.008C280.898 64.632 280.666 65.16 280.202 65.592C279.754 66.008 279.178 66.216 278.474 66.216ZM280.514 67.608V81H276.41V67.608H280.514ZM290.952 77.52V81H288.864C287.376 81 286.216 80.64 285.384 79.92C284.552 79.184 284.136 77.992 284.136 76.344V71.016H282.504V67.608H284.136V64.344H288.24V67.608H290.928V71.016H288.24V76.392C288.24 76.792 288.336 77.08 288.528 77.256C288.72 77.432 289.04 77.52 289.488 77.52H290.952ZM297.508 74.28C297.508 72.904 297.764 71.696 298.276 70.656C298.804 69.616 299.516 68.816 300.412 68.256C301.308 67.696 302.308 67.416 303.412 67.416C304.356 67.416 305.18 67.608 305.884 67.992C306.604 68.376 307.156 68.88 307.54 69.504V67.608H311.644V81H307.54V79.104C307.14 79.728 306.58 80.232 305.86 80.616C305.156 81 304.332 81.192 303.388 81.192C302.3 81.192 301.308 80.912 300.412 80.352C299.516 79.776 298.804 78.968 298.276 77.928C297.764 76.872 297.508 75.656 297.508 74.28ZM307.54 74.304C307.54 73.28 307.252 72.472 306.676 71.88C306.116 71.288 305.428 70.992 304.612 70.992C303.796 70.992 303.1 71.288 302.524 71.88C301.964 72.456 301.684 73.256 301.684 74.28C301.684 75.304 301.964 76.12 302.524 76.728C303.1 77.32 303.796 77.616 304.612 77.616C305.428 77.616 306.116 77.32 306.676 76.728C307.252 76.136 307.54 75.328 307.54 74.304ZM331.701 67.464C333.365 67.464 334.685 67.968 335.661 68.976C336.653 69.984 337.149 71.384 337.149 73.176V81H333.069V73.728C333.069 72.864 332.837 72.2 332.373 71.736C331.925 71.256 331.301 71.016 330.501 71.016C329.701 71.016 329.069 71.256 328.605 71.736C328.157 72.2 327.933 72.864 327.933 73.728V81H323.853V73.728C323.853 72.864 323.621 72.2 323.157 71.736C322.709 71.256 322.085 71.016 321.285 71.016C320.485 71.016 319.853 71.256 319.389 71.736C318.941 72.2 318.717 72.864 318.717 73.728V81H314.613V67.608H318.717V69.288C319.133 68.728 319.677 68.288 320.349 67.968C321.021 67.632 321.781 67.464 322.629 67.464C323.637 67.464 324.533 67.68 325.317 68.112C326.117 68.544 326.741 69.16 327.189 69.96C327.653 69.224 328.285 68.624 329.085 68.16C329.885 67.696 330.757 67.464 331.701 67.464ZM352.643 74.088C352.643 74.472 352.619 74.872 352.571 75.288H343.283C343.347 76.12 343.611 76.76 344.075 77.208C344.555 77.64 345.139 77.856 345.827 77.856C346.851 77.856 347.563 77.424 347.963 76.56H352.331C352.107 77.44 351.699 78.232 351.107 78.936C350.531 79.64 349.803 80.192 348.923 80.592C348.043 80.992 347.059 81.192 345.971 81.192C344.659 81.192 343.491 80.912 342.467 80.352C341.443 79.792 340.643 78.992 340.067 77.952C339.491 76.912 339.203 75.696 339.203 74.304C339.203 72.912 339.483 71.696 340.043 70.656C340.619 69.616 341.419 68.816 342.443 68.256C343.467 67.696 344.643 67.416 345.971 67.416C347.267 67.416 348.419 67.688 349.427 68.232C350.435 68.776 351.219 69.552 351.779 70.56C352.355 71.568 352.643 72.744 352.643 74.088ZM348.443 73.008C348.443 72.304 348.203 71.744 347.723 71.328C347.243 70.912 346.643 70.704 345.923 70.704C345.235 70.704 344.651 70.904 344.171 71.304C343.707 71.704 343.419 72.272 343.307 73.008H348.443ZM362.272 77.52V81H360.184C358.696 81 357.536 80.64 356.704 79.92C355.872 79.184 355.456 77.992 355.456 76.344V71.016H353.824V67.608H355.456V64.344H359.56V67.608H362.248V71.016H359.56V76.392C359.56 76.792 359.656 77.08 359.848 77.256C360.04 77.432 360.36 77.52 360.808 77.52H362.272ZM368.974 77.208L366.31 84.096H363.694L365.086 77.208H368.974ZM105.672 110.304C105.672 108.912 105.952 107.696 106.512 106.656C107.088 105.616 107.88 104.816 108.888 104.256C109.912 103.696 111.08 103.416 112.392 103.416C114.072 103.416 115.472 103.856 116.592 104.736C117.728 105.616 118.472 106.856 118.824 108.456H114.456C114.088 107.432 113.376 106.92 112.32 106.92C111.568 106.92 110.968 107.216 110.52 107.808C110.072 108.384 109.848 109.216 109.848 110.304C109.848 111.392 110.072 112.232 110.52 112.824C110.968 113.4 111.568 113.688 112.32 113.688C113.376 113.688 114.088 113.176 114.456 112.152H118.824C118.472 113.72 117.728 114.952 116.592 115.848C115.456 116.744 114.056 117.192 112.392 117.192C111.08 117.192 109.912 116.912 108.888 116.352C107.88 115.792 107.088 114.992 106.512 113.952C105.952 112.912 105.672 111.696 105.672 110.304ZM127.115 117.192C125.803 117.192 124.619 116.912 123.563 116.352C122.523 115.792 121.699 114.992 121.091 113.952C120.499 112.912 120.203 111.696 120.203 110.304C120.203 108.928 120.507 107.72 121.115 106.68C121.723 105.624 122.555 104.816 123.611 104.256C124.667 103.696 125.851 103.416 127.163 103.416C128.475 103.416 129.659 103.696 130.715 104.256C131.771 104.816 132.603 105.624 133.211 106.68C133.819 107.72 134.123 108.928 134.123 110.304C134.123 111.68 133.811 112.896 133.187 113.952C132.579 114.992 131.739 115.792 130.667 116.352C129.611 116.912 128.427 117.192 127.115 117.192ZM127.115 113.64C127.899 113.64 128.563 113.352 129.107 112.776C129.667 112.2 129.947 111.376 129.947 110.304C129.947 109.232 129.675 108.408 129.131 107.832C128.603 107.256 127.947 106.968 127.163 106.968C126.363 106.968 125.699 107.256 125.171 107.832C124.643 108.392 124.379 109.216 124.379 110.304C124.379 111.376 124.635 112.2 125.147 112.776C125.675 113.352 126.331 113.64 127.115 113.64ZM144.461 103.464C146.029 103.464 147.277 103.976 148.205 105C149.149 106.008 149.621 107.4 149.621 109.176V117H145.541V109.728C145.541 108.832 145.309 108.136 144.845 107.64C144.381 107.144 143.757 106.896 142.973 106.896C142.189 106.896 141.565 107.144 141.101 107.64C140.637 108.136 140.405 108.832 140.405 109.728V117H136.301V103.608H140.405V105.384C140.821 104.792 141.381 104.328 142.085 103.992C142.789 103.64 143.581 103.464 144.461 103.464ZM157.92 117.192C156.752 117.192 155.712 116.992 154.8 116.592C153.888 116.192 153.168 115.648 152.64 114.96C152.112 114.256 151.816 113.472 151.752 112.608H155.808C155.856 113.072 156.072 113.448 156.456 113.736C156.84 114.024 157.312 114.168 157.872 114.168C158.384 114.168 158.776 114.072 159.048 113.88C159.336 113.672 159.48 113.408 159.48 113.088C159.48 112.704 159.28 112.424 158.88 112.248C158.48 112.056 157.832 111.848 156.936 111.624C155.976 111.4 155.176 111.168 154.536 110.928C153.896 110.672 153.344 110.28 152.88 109.752C152.416 109.208 152.184 108.48 152.184 107.568C152.184 106.8 152.392 106.104 152.808 105.48C153.24 104.84 153.864 104.336 154.68 103.968C155.512 103.6 156.496 103.416 157.632 103.416C159.312 103.416 160.632 103.832 161.592 104.664C162.568 105.496 163.128 106.6 163.272 107.976H159.48C159.416 107.512 159.208 107.144 158.856 106.872C158.52 106.6 158.072 106.464 157.512 106.464C157.032 106.464 156.664 106.56 156.408 106.752C156.152 106.928 156.024 107.176 156.024 107.496C156.024 107.88 156.224 108.168 156.624 108.36C157.04 108.552 157.68 108.744 158.544 108.936C159.536 109.192 160.344 109.448 160.968 109.704C161.592 109.944 162.136 110.344 162.6 110.904C163.08 111.448 163.328 112.184 163.344 113.112C163.344 113.896 163.12 114.6 162.672 115.224C162.24 115.832 161.608 116.312 160.776 116.664C159.96 117.016 159.008 117.192 157.92 117.192ZM178.479 110.088C178.479 110.472 178.455 110.872 178.407 111.288H169.119C169.183 112.12 169.447 112.76 169.911 113.208C170.391 113.64 170.975 113.856 171.663 113.856C172.687 113.856 173.399 113.424 173.799 112.56H178.167C177.943 113.44 177.535 114.232 176.943 114.936C176.367 115.64 175.639 116.192 174.759 116.592C173.879 116.992 172.895 117.192 171.807 117.192C170.495 117.192 169.327 116.912 168.303 116.352C167.279 115.792 166.479 114.992 165.903 113.952C165.327 112.912 165.039 111.696 165.039 110.304C165.039 108.912 165.319 107.696 165.879 106.656C166.455 105.616 167.255 104.816 168.279 104.256C169.303 103.696 170.479 103.416 171.807 103.416C173.103 103.416 174.255 103.688 175.263 104.232C176.271 104.776 177.055 105.552 177.615 106.56C178.191 107.568 178.479 108.744 178.479 110.088ZM174.279 109.008C174.279 108.304 174.039 107.744 173.559 107.328C173.079 106.912 172.479 106.704 171.759 106.704C171.071 106.704 170.487 106.904 170.007 107.304C169.543 107.704 169.255 108.272 169.143 109.008H174.279ZM179.828 110.304C179.828 108.912 180.108 107.696 180.668 106.656C181.244 105.616 182.036 104.816 183.044 104.256C184.068 103.696 185.236 103.416 186.548 103.416C188.228 103.416 189.628 103.856 190.748 104.736C191.884 105.616 192.628 106.856 192.98 108.456H188.612C188.244 107.432 187.532 106.92 186.476 106.92C185.724 106.92 185.124 107.216 184.676 107.808C184.228 108.384 184.004 109.216 184.004 110.304C184.004 111.392 184.228 112.232 184.676 112.824C185.124 113.4 185.724 113.688 186.476 113.688C187.532 113.688 188.244 113.176 188.612 112.152H192.98C192.628 113.72 191.884 114.952 190.748 115.848C189.612 116.744 188.212 117.192 186.548 117.192C185.236 117.192 184.068 116.912 183.044 116.352C182.036 115.792 181.244 114.992 180.668 113.952C180.108 112.912 179.828 111.696 179.828 110.304ZM202.64 113.52V117H200.552C199.064 117 197.904 116.64 197.072 115.92C196.24 115.184 195.824 113.992 195.824 112.344V107.016H194.192V103.608H195.824V100.344H199.928V103.608H202.616V107.016H199.928V112.392C199.928 112.792 200.024 113.08 200.216 113.256C200.408 113.432 200.728 113.52 201.176 113.52H202.64ZM217.549 110.088C217.549 110.472 217.526 110.872 217.478 111.288H208.19C208.254 112.12 208.518 112.76 208.982 113.208C209.462 113.64 210.046 113.856 210.734 113.856C211.758 113.856 212.47 113.424 212.87 112.56H217.238C217.014 113.44 216.606 114.232 216.014 114.936C215.438 115.64 214.71 116.192 213.83 116.592C212.95 116.992 211.966 117.192 210.878 117.192C209.566 117.192 208.398 116.912 207.374 116.352C206.35 115.792 205.55 114.992 204.974 113.952C204.398 112.912 204.11 111.696 204.11 110.304C204.11 108.912 204.39 107.696 204.95 106.656C205.526 105.616 206.326 104.816 207.35 104.256C208.374 103.696 209.55 103.416 210.878 103.416C212.174 103.416 213.326 103.688 214.334 104.232C215.342 104.776 216.126 105.552 216.686 106.56C217.262 107.568 217.549 108.744 217.549 110.088ZM213.35 109.008C213.35 108.304 213.11 107.744 212.63 107.328C212.15 106.912 211.55 106.704 210.83 106.704C210.142 106.704 209.558 106.904 209.078 107.304C208.614 107.704 208.326 108.272 208.214 109.008H213.35ZM227.179 113.52V117H225.091C223.603 117 222.443 116.64 221.611 115.92C220.779 115.184 220.363 113.992 220.363 112.344V107.016H218.731V103.608H220.363V100.344H224.467V103.608H227.155V107.016H224.467V112.392C224.467 112.792 224.563 113.08 224.755 113.256C224.947 113.432 225.267 113.52 225.715 113.52H227.179ZM242.689 103.608V117H238.585V115.176C238.169 115.768 237.601 116.248 236.881 116.616C236.177 116.968 235.393 117.144 234.529 117.144C233.505 117.144 232.601 116.92 231.817 116.472C231.033 116.008 230.425 115.344 229.993 114.48C229.561 113.616 229.345 112.6 229.345 111.432V103.608H233.425V110.88C233.425 111.776 233.657 112.472 234.121 112.968C234.585 113.464 235.209 113.712 235.993 113.712C236.793 113.712 237.425 113.464 237.889 112.968C238.353 112.472 238.585 111.776 238.585 110.88V103.608H242.689ZM249.74 105.84C250.22 105.104 250.82 104.528 251.54 104.112C252.26 103.68 253.06 103.464 253.94 103.464V107.808H252.812C251.788 107.808 251.02 108.032 250.508 108.48C249.996 108.912 249.74 109.68 249.74 110.784V117H245.636V103.608H249.74V105.84ZM260.172 110.28C260.172 108.904 260.428 107.696 260.94 106.656C261.468 105.616 262.18 104.816 263.076 104.256C263.972 103.696 264.972 103.416 266.076 103.416C267.02 103.416 267.844 103.608 268.548 103.992C269.268 104.376 269.82 104.88 270.204 105.504V103.608H274.308V117H270.204V115.104C269.804 115.728 269.244 116.232 268.524 116.616C267.82 117 266.996 117.192 266.052 117.192C264.964 117.192 263.972 116.912 263.076 116.352C262.18 115.776 261.468 114.968 260.94 113.928C260.428 112.872 260.172 111.656 260.172 110.28ZM270.204 110.304C270.204 109.28 269.916 108.472 269.34 107.88C268.78 107.288 268.092 106.992 267.276 106.992C266.46 106.992 265.764 107.288 265.188 107.88C264.628 108.456 264.348 109.256 264.348 110.28C264.348 111.304 264.628 112.12 265.188 112.728C265.764 113.32 266.46 113.616 267.276 113.616C268.092 113.616 268.78 113.32 269.34 112.728C269.916 112.136 270.204 111.328 270.204 110.304ZM276.461 110.28C276.461 108.904 276.717 107.696 277.229 106.656C277.757 105.616 278.469 104.816 279.365 104.256C280.261 103.696 281.261 103.416 282.365 103.416C283.245 103.416 284.045 103.6 284.765 103.968C285.501 104.336 286.077 104.832 286.493 105.456V99.24H290.597V117H286.493V115.08C286.109 115.72 285.557 116.232 284.837 116.616C284.133 117 283.309 117.192 282.365 117.192C281.261 117.192 280.261 116.912 279.365 116.352C278.469 115.776 277.757 114.968 277.229 113.928C276.717 112.872 276.461 111.656 276.461 110.28ZM286.493 110.304C286.493 109.28 286.205 108.472 285.629 107.88C285.069 107.288 284.381 106.992 283.565 106.992C282.749 106.992 282.053 107.288 281.477 107.88C280.917 108.456 280.637 109.256 280.637 110.28C280.637 111.304 280.917 112.12 281.477 112.728C282.053 113.32 282.749 113.616 283.565 113.616C284.381 113.616 285.069 113.32 285.629 112.728C286.205 112.136 286.493 111.328 286.493 110.304ZM295.63 102.216C294.91 102.216 294.318 102.008 293.854 101.592C293.406 101.16 293.182 100.632 293.182 100.008C293.182 99.368 293.406 98.84 293.854 98.424C294.318 97.992 294.91 97.776 295.63 97.776C296.334 97.776 296.91 97.992 297.358 98.424C297.822 98.84 298.054 99.368 298.054 100.008C298.054 100.632 297.822 101.16 297.358 101.592C296.91 102.008 296.334 102.216 295.63 102.216ZM297.67 103.608V117H293.566V103.608H297.67ZM304.748 105.504C305.148 104.88 305.7 104.376 306.404 103.992C307.108 103.608 307.932 103.416 308.876 103.416C309.98 103.416 310.98 103.696 311.876 104.256C312.772 104.816 313.476 105.616 313.988 106.656C314.516 107.696 314.78 108.904 314.78 110.28C314.78 111.656 314.516 112.872 313.988 113.928C313.476 114.968 312.772 115.776 311.876 116.352C310.98 116.912 309.98 117.192 308.876 117.192C307.948 117.192 307.124 117 306.404 116.616C305.7 116.232 305.148 115.736 304.748 115.128V123.384H300.644V103.608H304.748V105.504ZM310.604 110.28C310.604 109.256 310.316 108.456 309.74 107.88C309.18 107.288 308.484 106.992 307.652 106.992C306.836 106.992 306.14 107.288 305.564 107.88C305.004 108.472 304.724 109.28 304.724 110.304C304.724 111.328 305.004 112.136 305.564 112.728C306.14 113.32 306.836 113.616 307.652 113.616C308.468 113.616 309.164 113.32 309.74 112.728C310.316 112.12 310.604 111.304 310.604 110.28ZM318.997 102.216C318.277 102.216 317.685 102.008 317.221 101.592C316.773 101.16 316.549 100.632 316.549 100.008C316.549 99.368 316.773 98.84 317.221 98.424C317.685 97.992 318.277 97.776 318.997 97.776C319.701 97.776 320.277 97.992 320.725 98.424C321.189 98.84 321.421 99.368 321.421 100.008C321.421 100.632 321.189 101.16 320.725 101.592C320.277 102.008 319.701 102.216 318.997 102.216ZM321.037 103.608V117H316.933V103.608H321.037ZM329.459 117.192C328.291 117.192 327.251 116.992 326.339 116.592C325.427 116.192 324.707 115.648 324.179 114.96C323.651 114.256 323.355 113.472 323.291 112.608H327.347C327.395 113.072 327.611 113.448 327.995 113.736C328.379 114.024 328.851 114.168 329.411 114.168C329.923 114.168 330.315 114.072 330.587 113.88C330.875 113.672 331.019 113.408 331.019 113.088C331.019 112.704 330.819 112.424 330.419 112.248C330.019 112.056 329.371 111.848 328.475 111.624C327.515 111.4 326.715 111.168 326.075 110.928C325.435 110.672 324.883 110.28 324.419 109.752C323.955 109.208 323.723 108.48 323.723 107.568C323.723 106.8 323.931 106.104 324.347 105.48C324.779 104.84 325.403 104.336 326.219 103.968C327.051 103.6 328.035 103.416 329.171 103.416C330.851 103.416 332.171 103.832 333.131 104.664C334.107 105.496 334.667 106.6 334.811 107.976H331.019C330.955 107.512 330.747 107.144 330.395 106.872C330.059 106.6 329.611 106.464 329.051 106.464C328.571 106.464 328.203 106.56 327.947 106.752C327.691 106.928 327.563 107.176 327.563 107.496C327.563 107.88 327.763 108.168 328.163 108.36C328.579 108.552 329.219 108.744 330.083 108.936C331.075 109.192 331.883 109.448 332.507 109.704C333.131 109.944 333.675 110.344 334.139 110.904C334.619 111.448 334.867 112.184 334.883 113.112C334.883 113.896 334.659 114.6 334.211 115.224C333.779 115.832 333.147 116.312 332.315 116.664C331.499 117.016 330.547 117.192 329.459 117.192ZM336.578 110.304C336.578 108.912 336.858 107.696 337.418 106.656C337.994 105.616 338.786 104.816 339.794 104.256C340.818 103.696 341.986 103.416 343.298 103.416C344.978 103.416 346.378 103.856 347.498 104.736C348.634 105.616 349.378 106.856 349.73 108.456H345.362C344.994 107.432 344.282 106.92 343.226 106.92C342.474 106.92 341.874 107.216 341.426 107.808C340.978 108.384 340.754 109.216 340.754 110.304C340.754 111.392 340.978 112.232 341.426 112.824C341.874 113.4 342.474 113.688 343.226 113.688C344.282 113.688 344.994 113.176 345.362 112.152H349.73C349.378 113.72 348.634 114.952 347.498 115.848C346.362 116.744 344.962 117.192 343.298 117.192C341.986 117.192 340.818 116.912 339.794 116.352C338.786 115.792 337.994 114.992 337.418 113.952C336.858 112.912 336.578 111.696 336.578 110.304ZM353.99 102.216C353.27 102.216 352.678 102.008 352.214 101.592C351.766 101.16 351.542 100.632 351.542 100.008C351.542 99.368 351.766 98.84 352.214 98.424C352.678 97.992 353.27 97.776 353.99 97.776C354.694 97.776 355.27 97.992 355.718 98.424C356.182 98.84 356.414 99.368 356.414 100.008C356.414 100.632 356.182 101.16 355.718 101.592C355.27 102.008 354.694 102.216 353.99 102.216ZM356.03 103.608V117H351.926V103.608H356.03ZM367.164 103.464C368.732 103.464 369.98 103.976 370.908 105C371.852 106.008 372.324 107.4 372.324 109.176V117H368.244V109.728C368.244 108.832 368.012 108.136 367.548 107.64C367.084 107.144 366.46 106.896 365.676 106.896C364.892 106.896 364.268 107.144 363.804 107.64C363.34 108.136 363.108 108.832 363.108 109.728V117H359.004V103.608H363.108V105.384C363.524 104.792 364.084 104.328 364.788 103.992C365.492 103.64 366.284 103.464 367.164 103.464ZM380.264 103.416C381.208 103.416 382.032 103.608 382.736 103.992C383.456 104.376 384.008 104.88 384.392 105.504V103.608H388.496V116.976C388.496 118.208 388.248 119.32 387.752 120.312C387.272 121.32 386.528 122.12 385.52 122.712C384.528 123.304 383.288 123.6 381.8 123.6C379.816 123.6 378.208 123.128 376.976 122.184C375.744 121.256 375.04 119.992 374.864 118.392H378.92C379.048 118.904 379.352 119.304 379.832 119.592C380.312 119.896 380.904 120.048 381.608 120.048C382.456 120.048 383.128 119.8 383.624 119.304C384.136 118.824 384.392 118.048 384.392 116.976V115.08C383.992 115.704 383.44 116.216 382.736 116.616C382.032 117 381.208 117.192 380.264 117.192C379.16 117.192 378.16 116.912 377.264 116.352C376.368 115.776 375.656 114.968 375.128 113.928C374.616 112.872 374.36 111.656 374.36 110.28C374.36 108.904 374.616 107.696 375.128 106.656C375.656 105.616 376.368 104.816 377.264 104.256C378.16 103.696 379.16 103.416 380.264 103.416ZM384.392 110.304C384.392 109.28 384.104 108.472 383.528 107.88C382.968 107.288 382.28 106.992 381.464 106.992C380.648 106.992 379.952 107.288 379.376 107.88C378.816 108.456 378.536 109.256 378.536 110.28C378.536 111.304 378.816 112.12 379.376 112.728C379.952 113.32 380.648 113.616 381.464 113.616C382.28 113.616 382.968 113.32 383.528 112.728C384.104 112.136 384.392 111.328 384.392 110.304ZM409.174 110.088C409.174 110.472 409.151 110.872 409.103 111.288H399.815C399.879 112.12 400.143 112.76 400.607 113.208C401.087 113.64 401.671 113.856 402.359 113.856C403.383 113.856 404.095 113.424 404.495 112.56H408.863C408.639 113.44 408.231 114.232 407.639 114.936C407.063 115.64 406.335 116.192 405.455 116.592C404.575 116.992 403.591 117.192 402.503 117.192C401.191 117.192 400.023 116.912 398.999 116.352C397.975 115.792 397.175 114.992 396.599 113.952C396.023 112.912 395.735 111.696 395.735 110.304C395.735 108.912 396.015 107.696 396.575 106.656C397.151 105.616 397.951 104.816 398.975 104.256C399.999 103.696 401.175 103.416 402.503 103.416C403.799 103.416 404.951 103.688 405.959 104.232C406.967 104.776 407.751 105.552 408.311 106.56C408.887 107.568 409.174 108.744 409.174 110.088ZM404.975 109.008C404.975 108.304 404.735 107.744 404.255 107.328C403.775 106.912 403.175 106.704 402.455 106.704C401.767 106.704 401.183 106.904 400.703 107.304C400.239 107.704 399.951 108.272 399.839 109.008H404.975ZM415.444 99.24V117H411.34V99.24H415.444ZM420.482 102.216C419.762 102.216 419.17 102.008 418.706 101.592C418.258 101.16 418.034 100.632 418.034 100.008C418.034 99.368 418.258 98.84 418.706 98.424C419.17 97.992 419.762 97.776 420.482 97.776C421.186 97.776 421.762 97.992 422.21 98.424C422.674 98.84 422.906 99.368 422.906 100.008C422.906 100.632 422.674 101.16 422.21 101.592C421.762 102.008 421.186 102.216 420.482 102.216ZM422.522 103.608V117H418.418V103.608H422.522ZM432.96 113.52V117H430.872C429.384 117 428.224 116.64 427.392 115.92C426.56 115.184 426.144 113.992 426.144 112.344V107.016H424.512V103.608H426.144V100.344H430.248V103.608H432.936V107.016H430.248V112.392C430.248 112.792 430.344 113.08 430.536 113.256C430.728 113.432 431.048 113.52 431.496 113.52H432.96ZM437.166 117.192C436.446 117.192 435.854 116.984 435.39 116.568C434.942 116.136 434.718 115.608 434.718 114.984C434.718 114.344 434.942 113.808 435.39 113.376C435.854 112.944 436.446 112.728 437.166 112.728C437.87 112.728 438.446 112.944 438.894 113.376C439.358 113.808 439.59 114.344 439.59 114.984C439.59 115.608 439.358 116.136 438.894 116.568C438.446 116.984 437.87 117.192 437.166 117.192Z" fill="white"/>
<path fill-rule="evenodd" clip-rule="evenodd" d="M76.5546 53.271V62.4065C76.5546 64.9355 74.3714 67 71.697 67H62.0364C59.362 67 57.1788 64.9355 57.1788 62.4065V53.271C57.1788 43.1548 65.857 35 76.5 35V41.4516C71.5333 41.7613 67.2761 44.6516 65.2566 48.729H71.697C74.3714 48.729 76.5546 50.7419 76.5546 53.271ZM47.5182 67H37.8576C35.1832 67 33 64.9355 33 62.4065V53.271C33 43.1548 41.6782 35 52.3212 35V41.4516C47.3545 41.7613 43.0972 44.6516 41.0778 48.729H47.5182C50.1926 48.729 52.3758 50.7935 52.3758 53.3226V62.4581C52.3758 64.9355 50.1926 67 47.5182 67Z" fill="white"/>
<path fill-rule="evenodd" clip-rule="evenodd" d="M458.192 110.824L458.17 101.689C458.164 99.16 460.342 97.0907 463.017 97.0848L472.677 97.0636C475.352 97.0578 477.54 99.1175 477.546 101.647L477.567 110.782C477.591 120.898 468.932 129.072 458.289 129.095L458.274 122.644C463.24 122.323 467.49 119.423 469.5 115.342L463.06 115.356C460.385 115.362 458.197 113.353 458.192 110.824ZM487.195 97.0318L496.856 97.0107C499.53 97.0048 501.719 99.0645 501.724 101.594L501.746 110.729C501.77 120.845 493.111 129.019 482.468 129.042L482.453 122.591C487.419 122.27 491.669 119.37 493.679 115.289L487.239 115.303C484.564 115.309 482.376 113.249 482.37 110.72L482.349 101.584C482.343 99.107 484.521 97.0377 487.195 97.0318Z" fill="white"/>
</svg>
