<svg width="121" height="24" viewBox="0 0 121 24" fill="none" xmlns="http://www.w3.org/2000/svg">
<path d="M32.096 2.82029L34.88 0.50671V0H25.238L18.3665 14.8635L10.5503 0H0.440542V0.50671L3.69238 3.90835C4.01029 4.15974 4.17379 4.52897 4.13292 4.8982V18.2651C4.23283 18.7483 4.05571 19.2393 3.66513 19.5889L0 23.4501V23.9489H10.3823V23.4422L6.72167 19.5928C6.52553 19.4206 6.37801 19.2115 6.29057 18.9819C6.20313 18.7523 6.17814 18.5084 6.21754 18.2691V6.70507L15.3327 23.9568H16.3909L24.2298 6.70507V20.4491C24.2298 20.8105 24.2298 20.8851 23.9573 21.1247L21.1369 23.4933V24H34.8164V23.4933L32.096 21.1797C31.8598 21.0226 31.7372 20.7594 31.7871 20.5041V3.49591C31.7636 3.36968 31.7799 3.24031 31.8342 3.12141C31.8886 3.00251 31.979 2.89849 32.096 2.82029Z" fill="white"/>
<path d="M48.6188 24H54.8065V7.35H48.6188V24ZM51.7126 0C49.6501 0 48 1.2 48 2.7C48 4.2 49.6501 5.4 51.7126 5.4C53.7752 5.4 55.4253 4.2 55.4253 2.7C55.4253 1.2 53.7752 0 51.7126 0ZM65.3257 9.9V7.35H59.1379V24H65.3257V15.45C65.3257 10.65 73.7823 10.35 73.7823 15.45V24H79.97V13.8C79.97 5.7 68.2133 6 65.3257 9.9Z" fill="white"/>
<path d="M119.6 6.0079C119.481 5.99737 119.36 5.99737 119.241 6.0079H94.7411C94.5841 6.00997 94.4281 6.03014 94.2773 6.06787L106.921 16.8555L119.6 6.0079Z" fill="white"/>
<path d="M120.895 7.05029L108.155 17.9204C107.827 18.1996 107.384 18.3564 106.921 18.3564C106.459 18.3564 106.015 18.1996 105.688 17.9204L93.0613 7.13276C93.0224 7.25498 93.0019 7.38093 93 7.50759V22.5008C93 22.8984 93.1844 23.2798 93.5126 23.561C93.8408 23.8421 94.2859 24.0001 94.75 24.0001H119.25C119.714 24.0001 120.159 23.8421 120.487 23.561C120.816 23.2798 121 22.8984 121 22.5008V7.50759C120.993 7.3514 120.958 7.1971 120.895 7.05029V7.05029ZM95.9488 22.5008H94.7325V21.4288L101.094 16.0237L102.327 17.0807L95.9488 22.5008ZM119.232 22.5008H118.007L111.629 17.0807L112.862 16.0237L119.224 21.4288L119.232 22.5008Z" fill="white"/>
</svg>
