<svg width="38" height="36" viewBox="0 0 38 36" fill="none" xmlns="http://www.w3.org/2000/svg">
<path d="M37.2135 17.7051L19.9481 0.394253C19.8238 0.269276 19.6761 0.170124 19.5136 0.102473C19.351 0.0348221 19.1768 0 19.0008 0C18.8248 0 18.6505 0.0348221 18.488 0.102473C18.3254 0.170124 18.1778 0.269276 18.0535 0.394253L0.788032 17.7051C0.285033 18.2097 0 18.8953 0 19.6103C0 21.0949 1.20301 22.3019 2.68266 22.3019H4.50184V34.6542C4.50184 35.3986 5.10125 36 5.84317 36H16.3181V26.5792H21.0128V36H32.1584C32.9003 36 33.4997 35.3986 33.4997 34.6542V22.3019H35.3189C36.0315 22.3019 36.7147 22.0201 37.2177 21.5112C38.2615 20.4598 38.2615 18.7565 37.2135 17.7051V17.7051Z" fill="black"/>
<path d="M37.2135 17.7051L19.9481 0.394253C19.8238 0.269276 19.6761 0.170124 19.5136 0.102473C19.351 0.0348221 19.1768 0 19.0008 0C18.8248 0 18.6505 0.0348221 18.488 0.102473C18.3254 0.170124 18.1778 0.269276 18.0535 0.394253L0.788032 17.7051C0.285033 18.2097 0 18.8953 0 19.6103C0 21.0949 1.20301 22.3019 2.68266 22.3019H4.50184V34.6542C4.50184 35.3986 5.10125 36 5.84317 36H16.3181V26.5792H21.0128V36H32.1584C32.9003 36 33.4997 35.3986 33.4997 34.6542V22.3019H35.3189C36.0315 22.3019 36.7147 22.0201 37.2177 21.5112C38.2615 20.4598 38.2615 18.7565 37.2135 17.7051V17.7051Z" fill="white"/>
</svg>
