<svg width="31" height="38" viewBox="0 0 31 38" fill="none" xmlns="http://www.w3.org/2000/svg">
<path d="M25.8564 37.9998C25.1947 38.0012 24.5408 37.9117 23.943 37.7379C23.3451 37.5642 22.8184 37.3105 22.4015 36.9956L1.00763 20.7114C0.356149 20.2258 0 19.6167 0 18.988C0 18.3594 0.356149 17.7503 1.00763 17.2646L23.1545 0.98045C23.9063 0.426199 24.9867 0.0776517 26.1579 0.0114844C27.3292 -0.0546829 28.4953 0.16695 29.3999 0.627625C30.3044 1.0883 30.8733 1.75028 30.9813 2.46794C31.0892 3.18561 30.7275 3.90016 29.9757 4.45441L10.1764 19.0016L29.3113 33.5488C29.8529 33.9472 30.197 34.4323 30.3028 34.9467C30.4085 35.4612 30.2716 35.9834 29.9081 36.4517C29.5447 36.9199 28.9699 37.3146 28.2519 37.5889C27.5338 37.8633 26.7025 38.0059 25.8564 37.9998Z" fill="white"/>
</svg>
