<svg width="119" height="27" viewBox="0 0 119 27" fill="none" xmlns="http://www.w3.org/2000/svg">
<rect width="119" height="27" rx="13.5" fill="#676262"/>
<path d="M17.8688 16H16.1588L13.2988 11.67V16H11.5888V8.98H13.2988L16.1588 13.33V8.98H17.8688V16ZM24.8683 13.12C24.8683 13.28 24.8583 13.4467 24.8383 13.62H20.9683C20.9949 13.9667 21.1049 14.2333 21.2983 14.42C21.4983 14.6 21.7416 14.69 22.0283 14.69C22.4549 14.69 22.7516 14.51 22.9183 14.15H24.7383C24.6449 14.5167 24.4749 14.8467 24.2283 15.14C23.9883 15.4333 23.6849 15.6633 23.3183 15.83C22.9516 15.9967 22.5416 16.08 22.0883 16.08C21.5416 16.08 21.0549 15.9633 20.6283 15.73C20.2016 15.4967 19.8683 15.1633 19.6283 14.73C19.3883 14.2967 19.2683 13.79 19.2683 13.21C19.2683 12.63 19.3849 12.1233 19.6183 11.69C19.8583 11.2567 20.1916 10.9233 20.6183 10.69C21.0449 10.4567 21.5349 10.34 22.0883 10.34C22.6283 10.34 23.1083 10.4533 23.5283 10.68C23.9483 10.9067 24.2749 11.23 24.5083 11.65C24.7483 12.07 24.8683 12.56 24.8683 13.12ZM23.1183 12.67C23.1183 12.3767 23.0183 12.1433 22.8183 11.97C22.6183 11.7967 22.3683 11.71 22.0683 11.71C21.7816 11.71 21.5383 11.7933 21.3383 11.96C21.1449 12.1267 21.0249 12.3633 20.9783 12.67H23.1183ZM29.5704 16L28.5004 14.45L27.6004 16H25.7504L27.5904 13.15L25.7004 10.42H27.6204L28.6904 11.96L29.5904 10.42H31.4404L29.5704 13.23L31.4904 16H29.5704ZM35.7593 14.55V16H34.8893C34.2693 16 33.786 15.85 33.4393 15.55C33.0926 15.2433 32.9193 14.7467 32.9193 14.06V11.84H32.2393V10.42H32.9193V9.06H34.6293V10.42H35.7493V11.84H34.6293V14.08C34.6293 14.2467 34.6693 14.3667 34.7493 14.44C34.8293 14.5133 34.9626 14.55 35.1493 14.55H35.7593ZM39.5409 12.48C39.5409 11.7867 39.6909 11.17 39.9909 10.63C40.2909 10.0833 40.7076 9.66 41.2409 9.36C41.7809 9.05333 42.3909 8.9 43.0709 8.9C43.9043 8.9 44.6176 9.12 45.2109 9.56C45.8043 10 46.2009 10.6 46.4009 11.36H44.5209C44.3809 11.0667 44.1809 10.8433 43.9209 10.69C43.6676 10.5367 43.3776 10.46 43.0509 10.46C42.5243 10.46 42.0976 10.6433 41.7709 11.01C41.4443 11.3767 41.2809 11.8667 41.2809 12.48C41.2809 13.0933 41.4443 13.5833 41.7709 13.95C42.0976 14.3167 42.5243 14.5 43.0509 14.5C43.3776 14.5 43.6676 14.4233 43.9209 14.27C44.1809 14.1167 44.3809 13.8933 44.5209 13.6H46.4009C46.2009 14.36 45.8043 14.96 45.2109 15.4C44.6176 15.8333 43.9043 16.05 43.0709 16.05C42.3909 16.05 41.7809 15.9 41.2409 15.6C40.7076 15.2933 40.2909 14.87 39.9909 14.33C39.6909 13.79 39.5409 13.1733 39.5409 12.48ZM47.6081 13.2C47.6081 12.6267 47.7148 12.1233 47.9281 11.69C48.1481 11.2567 48.4448 10.9233 48.8181 10.69C49.1915 10.4567 49.6081 10.34 50.0681 10.34C50.4615 10.34 50.8048 10.42 51.0981 10.58C51.3981 10.74 51.6281 10.95 51.7881 11.21V10.42H53.4981V16H51.7881V15.21C51.6215 15.47 51.3881 15.68 51.0881 15.84C50.7948 16 50.4515 16.08 50.0581 16.08C49.6048 16.08 49.1915 15.9633 48.8181 15.73C48.4448 15.49 48.1481 15.1533 47.9281 14.72C47.7148 14.28 47.6081 13.7733 47.6081 13.2ZM51.7881 13.21C51.7881 12.7833 51.6681 12.4467 51.4281 12.2C51.1948 11.9533 50.9081 11.83 50.5681 11.83C50.2281 11.83 49.9381 11.9533 49.6981 12.2C49.4648 12.44 49.3481 12.7733 49.3481 13.2C49.3481 13.6267 49.4648 13.9667 49.6981 14.22C49.9381 14.4667 50.2281 14.59 50.5681 14.59C50.9081 14.59 51.1948 14.4667 51.4281 14.22C51.6681 13.9733 51.7881 13.6367 51.7881 13.21ZM57.5052 16.08C57.0186 16.08 56.5852 15.9967 56.2052 15.83C55.8252 15.6633 55.5252 15.4367 55.3052 15.15C55.0852 14.8567 54.9619 14.53 54.9352 14.17H56.6252C56.6452 14.3633 56.7352 14.52 56.8952 14.64C57.0552 14.76 57.2519 14.82 57.4852 14.82C57.6986 14.82 57.8619 14.78 57.9752 14.7C58.0952 14.6133 58.1552 14.5033 58.1552 14.37C58.1552 14.21 58.0719 14.0933 57.9052 14.02C57.7386 13.94 57.4686 13.8533 57.0952 13.76C56.6952 13.6667 56.3619 13.57 56.0952 13.47C55.8286 13.3633 55.5986 13.2 55.4052 12.98C55.2119 12.7533 55.1152 12.45 55.1152 12.07C55.1152 11.75 55.2019 11.46 55.3752 11.2C55.5552 10.9333 55.8152 10.7233 56.1552 10.57C56.5019 10.4167 56.9119 10.34 57.3852 10.34C58.0852 10.34 58.6352 10.5133 59.0352 10.86C59.4419 11.2067 59.6752 11.6667 59.7352 12.24H58.1552C58.1286 12.0467 58.0419 11.8933 57.8952 11.78C57.7552 11.6667 57.5686 11.61 57.3352 11.61C57.1352 11.61 56.9819 11.65 56.8752 11.73C56.7686 11.8033 56.7152 11.9067 56.7152 12.04C56.7152 12.2 56.7986 12.32 56.9652 12.4C57.1386 12.48 57.4052 12.56 57.7652 12.64C58.1786 12.7467 58.5152 12.8533 58.7752 12.96C59.0352 13.06 59.2619 13.2267 59.4552 13.46C59.6552 13.6867 59.7586 13.9933 59.7652 14.38C59.7652 14.7067 59.6719 15 59.4852 15.26C59.3052 15.5133 59.0419 15.7133 58.6952 15.86C58.3552 16.0067 57.9586 16.08 57.5052 16.08ZM66.5714 13.12C66.5714 13.28 66.5614 13.4467 66.5414 13.62H62.6714C62.6981 13.9667 62.8081 14.2333 63.0014 14.42C63.2014 14.6 63.4447 14.69 63.7314 14.69C64.1581 14.69 64.4547 14.51 64.6214 14.15H66.4414C66.3481 14.5167 66.1781 14.8467 65.9314 15.14C65.6914 15.4333 65.3881 15.6633 65.0214 15.83C64.6547 15.9967 64.2447 16.08 63.7914 16.08C63.2447 16.08 62.7581 15.9633 62.3314 15.73C61.9047 15.4967 61.5714 15.1633 61.3314 14.73C61.0914 14.2967 60.9714 13.79 60.9714 13.21C60.9714 12.63 61.0881 12.1233 61.3214 11.69C61.5614 11.2567 61.8947 10.9233 62.3214 10.69C62.7481 10.4567 63.2381 10.34 63.7914 10.34C64.3314 10.34 64.8114 10.4533 65.2314 10.68C65.6514 10.9067 65.9781 11.23 66.2114 11.65C66.4514 12.07 66.5714 12.56 66.5714 13.12ZM64.8214 12.67C64.8214 12.3767 64.7214 12.1433 64.5214 11.97C64.3214 11.7967 64.0714 11.71 63.7714 11.71C63.4847 11.71 63.2414 11.7933 63.0414 11.96C62.8481 12.1267 62.7281 12.3633 62.6814 12.67H64.8214ZM73.1327 16.07C72.6193 16.07 72.1593 15.9867 71.7527 15.82C71.346 15.6533 71.0193 15.4067 70.7727 15.08C70.5327 14.7533 70.406 14.36 70.3927 13.9H72.2127C72.2393 14.16 72.3293 14.36 72.4827 14.5C72.636 14.6333 72.836 14.7 73.0827 14.7C73.336 14.7 73.536 14.6433 73.6827 14.53C73.8293 14.41 73.9027 14.2467 73.9027 14.04C73.9027 13.8667 73.8427 13.7233 73.7227 13.61C73.6093 13.4967 73.466 13.4033 73.2927 13.33C73.126 13.2567 72.886 13.1733 72.5727 13.08C72.1193 12.94 71.7493 12.8 71.4627 12.66C71.176 12.52 70.9293 12.3133 70.7227 12.04C70.516 11.7667 70.4127 11.41 70.4127 10.97C70.4127 10.3167 70.6493 9.80667 71.1227 9.44C71.596 9.06667 72.2127 8.88 72.9727 8.88C73.746 8.88 74.3693 9.06667 74.8427 9.44C75.316 9.80667 75.5693 10.32 75.6027 10.98H73.7527C73.7393 10.7533 73.656 10.5767 73.5027 10.45C73.3493 10.3167 73.1527 10.25 72.9127 10.25C72.706 10.25 72.5393 10.3067 72.4127 10.42C72.286 10.5267 72.2227 10.6833 72.2227 10.89C72.2227 11.1167 72.3293 11.2933 72.5427 11.42C72.756 11.5467 73.0893 11.6833 73.5427 11.83C73.996 11.9833 74.3627 12.13 74.6427 12.27C74.9293 12.41 75.176 12.6133 75.3827 12.88C75.5893 13.1467 75.6927 13.49 75.6927 13.91C75.6927 14.31 75.5893 14.6733 75.3827 15C75.1827 15.3267 74.8893 15.5867 74.5027 15.78C74.116 15.9733 73.6593 16.07 73.1327 16.07ZM80.355 14.55V16H79.485C78.865 16 78.3817 15.85 78.035 15.55C77.6883 15.2433 77.515 14.7467 77.515 14.06V11.84H76.835V10.42H77.515V9.06H79.225V10.42H80.345V11.84H79.225V14.08C79.225 14.2467 79.265 14.3667 79.345 14.44C79.425 14.5133 79.5583 14.55 79.745 14.55H80.355ZM87.3175 10.42V16H85.6075V15.24C85.4342 15.4867 85.1975 15.6867 84.8975 15.84C84.6042 15.9867 84.2775 16.06 83.9175 16.06C83.4908 16.06 83.1142 15.9667 82.7875 15.78C82.4608 15.5867 82.2075 15.31 82.0275 14.95C81.8475 14.59 81.7575 14.1667 81.7575 13.68V10.42H83.4575V13.45C83.4575 13.8233 83.5542 14.1133 83.7475 14.32C83.9408 14.5267 84.2008 14.63 84.5275 14.63C84.8608 14.63 85.1242 14.5267 85.3175 14.32C85.5108 14.1133 85.6075 13.8233 85.6075 13.45V10.42H87.3175ZM88.7058 13.2C88.7058 12.6267 88.8124 12.1233 89.0258 11.69C89.2458 11.2567 89.5424 10.9233 89.9158 10.69C90.2891 10.4567 90.7058 10.34 91.1658 10.34C91.5324 10.34 91.8658 10.4167 92.1658 10.57C92.4724 10.7233 92.7124 10.93 92.8858 11.19V8.6H94.5958V16H92.8858V15.2C92.7258 15.4667 92.4958 15.68 92.1958 15.84C91.9024 16 91.5591 16.08 91.1658 16.08C90.7058 16.08 90.2891 15.9633 89.9158 15.73C89.5424 15.49 89.2458 15.1533 89.0258 14.72C88.8124 14.28 88.7058 13.7733 88.7058 13.2ZM92.8858 13.21C92.8858 12.7833 92.7658 12.4467 92.5258 12.2C92.2924 11.9533 92.0058 11.83 91.6658 11.83C91.3258 11.83 91.0358 11.9533 90.7958 12.2C90.5624 12.44 90.4458 12.7733 90.4458 13.2C90.4458 13.6267 90.5624 13.9667 90.7958 14.22C91.0358 14.4667 91.3258 14.59 91.6658 14.59C92.0058 14.59 92.2924 14.4667 92.5258 14.22C92.7658 13.9733 92.8858 13.6367 92.8858 13.21ZM102.033 10.42L98.5329 18.65H96.6929L97.9729 15.81L95.7029 10.42H97.6129L98.9029 13.91L100.183 10.42H102.033Z" fill="white"/>
<path d="M108.009 8.0011C108.138 8.00081 108.264 8.02919 108.38 8.08415C108.495 8.13912 108.597 8.21926 108.678 8.3187L112.813 13.4613C112.938 13.6146 113.007 13.8069 113.007 14.0052C113.007 14.2036 112.938 14.3957 112.811 14.5488L108.519 19.6816C108.373 19.8563 108.164 19.966 107.937 19.9866C107.71 20.0072 107.485 19.937 107.31 19.7915C107.135 19.6459 107.025 19.4369 107.005 19.2105C106.984 18.984 107.054 18.7587 107.2 18.584L111.037 13.9987L107.339 9.40464C107.234 9.27883 107.168 9.1257 107.148 8.96337C107.127 8.80103 107.154 8.63629 107.225 8.48864C107.295 8.34099 107.407 8.2166 107.546 8.1302C107.685 8.0438 107.846 7.999 108.009 8.0011Z" fill="white"/>
</svg>
