<svg width="201" height="61" viewBox="0 0 201 61" fill="none" xmlns="http://www.w3.org/2000/svg">
<rect width="201" height="61" rx="30.5" fill="#676262"/>
<path d="M55.5 40L51.85 33.375H50.825V40H46.55V22.45H53.725C55.1083 22.45 56.2833 22.6917 57.25 23.175C58.2333 23.6583 58.9667 24.325 59.45 25.175C59.9333 26.0083 60.175 26.9417 60.175 27.975C60.175 29.1417 59.8417 30.1833 59.175 31.1C58.525 32.0167 57.5583 32.6667 56.275 33.05L60.325 40H55.5ZM50.825 30.35H53.475C54.2583 30.35 54.8417 30.1583 55.225 29.775C55.625 29.3917 55.825 28.85 55.825 28.15C55.825 27.4833 55.625 26.9583 55.225 26.575C54.8417 26.1917 54.2583 26 53.475 26H50.825V30.35ZM77.5086 32.8C77.5086 33.2 77.4836 33.6167 77.4336 34.05H67.7586C67.8253 34.9167 68.1003 35.5833 68.5836 36.05C69.0836 36.5 69.6919 36.725 70.4086 36.725C71.4753 36.725 72.2169 36.275 72.6336 35.375H77.1836C76.9503 36.2917 76.5253 37.1167 75.9086 37.85C75.3086 38.5833 74.5503 39.1583 73.6336 39.575C72.7169 39.9917 71.6919 40.2 70.5586 40.2C69.1919 40.2 67.9753 39.9083 66.9086 39.325C65.8419 38.7417 65.0086 37.9083 64.4086 36.825C63.8086 35.7417 63.5086 34.475 63.5086 33.025C63.5086 31.575 63.8003 30.3083 64.3836 29.225C64.9836 28.1417 65.8169 27.3083 66.8836 26.725C67.9503 26.1417 69.1753 25.85 70.5586 25.85C71.9086 25.85 73.1086 26.1333 74.1586 26.7C75.2086 27.2667 76.0253 28.075 76.6086 29.125C77.2086 30.175 77.5086 31.4 77.5086 32.8ZM73.1336 31.675C73.1336 30.9417 72.8836 30.3583 72.3836 29.925C71.8836 29.4917 71.2586 29.275 70.5086 29.275C69.7919 29.275 69.1836 29.4833 68.6836 29.9C68.2003 30.3167 67.9003 30.9083 67.7836 31.675H73.1336ZM86.9389 40.2C85.7222 40.2 84.6389 39.9917 83.6889 39.575C82.7389 39.1583 81.9889 38.5917 81.4389 37.875C80.8889 37.1417 80.5805 36.325 80.5139 35.425H84.7389C84.7889 35.9083 85.0139 36.3 85.4139 36.6C85.8139 36.9 86.3055 37.05 86.8889 37.05C87.4222 37.05 87.8305 36.95 88.1139 36.75C88.4139 36.5333 88.5639 36.2583 88.5639 35.925C88.5639 35.525 88.3555 35.2333 87.9389 35.05C87.5222 34.85 86.8472 34.6333 85.9139 34.4C84.9139 34.1667 84.0805 33.925 83.4139 33.675C82.7472 33.4083 82.1722 33 81.6889 32.45C81.2055 31.8833 80.9639 31.125 80.9639 30.175C80.9639 29.375 81.1805 28.65 81.6139 28C82.0639 27.3333 82.7139 26.8083 83.5639 26.425C84.4305 26.0417 85.4555 25.85 86.6389 25.85C88.3889 25.85 89.7639 26.2833 90.7639 27.15C91.7805 28.0167 92.3639 29.1667 92.5139 30.6H88.5639C88.4972 30.1167 88.2805 29.7333 87.9139 29.45C87.5639 29.1667 87.0972 29.025 86.5139 29.025C86.0139 29.025 85.6305 29.125 85.3639 29.325C85.0972 29.5083 84.9639 29.7667 84.9639 30.1C84.9639 30.5 85.1722 30.8 85.5889 31C86.0222 31.2 86.6889 31.4 87.5889 31.6C88.6222 31.8667 89.4639 32.1333 90.1139 32.4C90.7639 32.65 91.3305 33.0667 91.8139 33.65C92.3139 34.2167 92.5722 34.9833 92.5889 35.95C92.5889 36.7667 92.3555 37.5 91.8889 38.15C91.4389 38.7833 90.7805 39.2833 89.9139 39.65C89.0639 40.0167 88.0722 40.2 86.9389 40.2ZM110.479 26.05V40H106.204V38.1C105.771 38.7167 105.179 39.2167 104.429 39.6C103.696 39.9667 102.879 40.15 101.979 40.15C100.913 40.15 99.971 39.9167 99.1543 39.45C98.3376 38.9667 97.7043 38.275 97.2543 37.375C96.8043 36.475 96.5793 35.4167 96.5793 34.2V26.05H100.829V33.625C100.829 34.5583 101.071 35.2833 101.554 35.8C102.038 36.3167 102.688 36.575 103.504 36.575C104.338 36.575 104.996 36.3167 105.479 35.8C105.963 35.2833 106.204 34.5583 106.204 33.625V26.05H110.479ZM132.85 25.9C134.583 25.9 135.958 26.425 136.975 27.475C138.008 28.525 138.525 29.9833 138.525 31.85V40H134.275V32.425C134.275 31.525 134.033 30.8333 133.55 30.35C133.083 29.85 132.433 29.6 131.6 29.6C130.767 29.6 130.108 29.85 129.625 30.35C129.158 30.8333 128.925 31.525 128.925 32.425V40H124.675V32.425C124.675 31.525 124.433 30.8333 123.95 30.35C123.483 29.85 122.833 29.6 122 29.6C121.167 29.6 120.508 29.85 120.025 30.35C119.558 30.8333 119.325 31.525 119.325 32.425V40H115.05V26.05H119.325V27.8C119.758 27.2167 120.325 26.7583 121.025 26.425C121.725 26.075 122.517 25.9 123.4 25.9C124.45 25.9 125.383 26.125 126.2 26.575C127.033 27.025 127.683 27.6667 128.15 28.5C128.633 27.7333 129.292 27.1083 130.125 26.625C130.958 26.1417 131.867 25.9 132.85 25.9ZM156.165 32.8C156.165 33.2 156.14 33.6167 156.09 34.05H146.415C146.482 34.9167 146.757 35.5833 147.24 36.05C147.74 36.5 148.348 36.725 149.065 36.725C150.132 36.725 150.873 36.275 151.29 35.375H155.84C155.607 36.2917 155.182 37.1167 154.565 37.85C153.965 38.5833 153.207 39.1583 152.29 39.575C151.373 39.9917 150.348 40.2 149.215 40.2C147.848 40.2 146.632 39.9083 145.565 39.325C144.498 38.7417 143.665 37.9083 143.065 36.825C142.465 35.7417 142.165 34.475 142.165 33.025C142.165 31.575 142.457 30.3083 143.04 29.225C143.64 28.1417 144.473 27.3083 145.54 26.725C146.607 26.1417 147.832 25.85 149.215 25.85C150.565 25.85 151.765 26.1333 152.815 26.7C153.865 27.2667 154.682 28.075 155.265 29.125C155.865 30.175 156.165 31.4 156.165 32.8ZM151.79 31.675C151.79 30.9417 151.54 30.3583 151.04 29.925C150.54 29.4917 149.915 29.275 149.165 29.275C148.448 29.275 147.84 29.4833 147.34 29.9C146.857 30.3167 146.557 30.9083 146.44 31.675H151.79Z" fill="white"/>
</svg>
