<svg width="33" height="40" viewBox="0 0 33 40" fill="none" xmlns="http://www.w3.org/2000/svg">
<path d="M6.25585 0.939681C6.91757 0.942205 7.57085 1.03555 8.16768 1.21285C8.76452 1.39014 9.28975 1.64689 9.70477 1.96423L31.0022 18.3743C31.6508 18.8637 32.0034 19.475 31.9997 20.1036C31.996 20.7322 31.6362 21.3393 30.9819 21.821L8.73941 37.9743C7.98432 38.5241 6.90191 38.8663 5.7303 38.9256C4.55869 38.9848 3.39384 38.7563 2.49202 38.2903C1.59021 37.8243 1.02528 37.159 0.92153 36.4407C0.817777 35.7224 1.18369 35.01 1.93878 34.4602L21.8235 20.03L2.77475 5.37024C2.23547 4.96867 1.89428 4.48154 1.79154 3.96649C1.68881 3.45143 1.82883 2.93001 2.19504 2.46391C2.56125 1.99782 3.13832 1.60656 3.85797 1.33644C4.57762 1.06632 5.40974 0.928634 6.25585 0.939681Z" fill="white"/>
</svg>
