<svg width="70" height="70" viewBox="0 0 70 70" fill="none" xmlns="http://www.w3.org/2000/svg">
<rect width="70" height="70" fill="#1F3A4F"/>
<path d="M33.748 40.0626C36.4059 40.0626 38.5605 37.9079 38.5605 35.25C38.5605 32.5921 36.4059 30.4375 33.748 30.4375C31.0902 30.4375 28.9355 32.5921 28.9355 35.25C28.9355 37.9079 31.0902 40.0626 33.748 40.0626Z" fill="white"/>
<path d="M50.3845 38.5704C49.5696 38.2416 48.6279 38.641 48.2991 39.4672L45.8672 45.5438L41.1252 41.9873C40.8477 41.7788 40.5108 41.6665 40.1627 41.6665H27.3294C26.9829 41.6665 26.6444 41.7788 26.3669 41.9873L21.625 45.5438L19.1947 39.4672C18.8658 38.6426 17.937 38.2432 17.1093 38.5704C16.2863 38.8993 15.8869 39.8329 16.2157 40.6575L19.4241 48.6784C19.6102 49.142 20 49.4933 20.4812 49.628C20.9609 49.7596 21.4774 49.6649 21.8768 49.3666L27.331 45.2759V54.4999H40.1643V45.2759L45.6185 49.3666C45.9008 49.5783 46.2393 49.6874 46.581 49.6874C46.7254 49.6874 46.873 49.6649 47.0157 49.628C47.497 49.4933 47.8868 49.142 48.0729 48.6784L51.2812 40.6575C51.6053 39.8329 51.2042 38.8993 50.3845 38.5704Z" fill="white"/>
<path d="M35.25 25.6251C37.9081 25.6251 40.0625 23.4707 40.0625 20.8125C40.0625 18.1544 37.9081 16 35.25 16C32.5919 16 30.4375 18.1544 30.4375 20.8125C30.4375 23.4707 32.5919 25.6251 35.25 25.6251ZM35.25 17.6042C37.0194 17.6042 38.4583 19.0431 38.4583 20.8125C38.4583 22.582 37.0194 24.0209 35.25 24.0209C33.4806 24.0209 32.0417 22.582 32.0417 20.8125C32.0417 19.0431 33.4806 17.6042 35.25 17.6042Z" fill="white"/>
<path d="M48.0837 20.8125L41.667 32.0418H54.5003L48.0837 20.8125ZM48.0837 24.0465L51.7347 30.4376H44.431L48.0837 24.0465Z" fill="white"/>
<path d="M28.8333 28.8335L22.4167 22.4167L16 28.8335L22.4167 35.2502L28.8333 28.8335ZM22.4167 24.6851L26.565 28.8335L22.4167 32.9819L18.2683 28.8335L22.4167 24.6851Z" fill="white"/>
</svg>
